<svg width="18" height="18" viewBox="0 0 18 18" fill="none" xmlns="http://www.w3.org/2000/svg">
<path d="M17.4624 5.8125H12.5874V0.9375C12.5874 0.73125 12.4187 0.5625 12.2124 0.5625H1.3374C1.13115 0.5625 0.962402 0.73125 0.962402 0.9375V11.8125C0.962402 12.0188 1.13115 12.1875 1.3374 12.1875H6.2124V17.0625C6.2124 17.2687 6.38115 17.4375 6.5874 17.4375H17.4624C17.6687 17.4375 17.8374 17.2687 17.8374 17.0625V6.1875C17.8374 5.98125 17.6687 5.8125 17.4624 5.8125ZM6.2124 6.1875V10.5938H2.55615V2.15625H10.9937V5.8125H6.5874C6.38115 5.8125 6.2124 5.98125 6.2124 6.1875ZM10.9937 7.40625V10.5938H7.80615V7.40625H10.9937ZM16.2437 15.8438H7.80615V12.1875H12.2124C12.4187 12.1875 12.5874 12.0188 12.5874 11.8125V7.40625H16.2437V15.8438Z" fill="#3366FF"/>
</svg>
