<svg width="290" height="281" viewBox="0 0 290 281" fill="none" xmlns="http://www.w3.org/2000/svg">
<path d="M246.643 137.911C190.135 105.287 98.819 105.287 42.677 137.911C-13.4649 170.536 -13.1548 223.427 43.3408 256.051C99.8364 288.676 191.165 288.682 247.307 256.051C303.449 223.421 303.182 170.529 246.643 137.911Z" fill="#F5F5F5"/>
<path d="M132.144 260.338L144.024 271.665L177.188 260.034L165.308 248.706L132.144 260.338Z" fill="#E0E0E0"/>
<path d="M72.7952 220.307L77.634 223.099L93.7321 213.744L66.1885 197.838L50.0841 207.199L57.1499 211.275L45.9587 212.912L55.5928 234.718L77.727 231.48L72.7952 220.307Z" fill="#E0E0E0"/>
<path d="M218.082 199.686L249.571 186.584L236.184 175.827L211.084 186.299L210.588 180.511L211.5 180.722L220.055 168.433L188.237 160.988L211.289 147.676L195.16 138.314L167.616 154.22L182.151 162.663L175.476 172.26L187.84 175.132L171.791 175.56L178.894 161.41L156.959 157.688L150.004 171.534L112.33 172.539L113.273 183.588L103.428 181.262L94.8426 193.513L122.175 199.984L91.778 201.597L93.9307 214.773L129.744 212.912L130.11 213.818L109.638 215.945L112.057 223.613L92.6341 229.984L93.9555 231.33L88.5398 229.475L69.2034 248.954L89.0547 255.574L103.509 240.995L111.89 249.531L130.345 243.477L128.807 245.028L148.658 251.647L162.194 237.999L164.055 239.072L189.49 224.376L208.497 217.664L195.005 204.909L195.327 205.033L208.082 194.078L193.193 188.234L207.251 187.856L204.732 188.904L218.082 199.686ZM168.069 182.998L171.376 176.417L172.083 184.729L169.08 187.31L161.382 181.863L168.069 182.998ZM152.238 184.723L151.859 180.238L159.217 181.479L138.298 191.404L139.427 189.791L121.524 185.554L152.238 184.723ZM152.529 227.025L148.094 225.549L138.85 234.854L134.979 222.596L167.765 218.204L152.529 227.025ZM125.916 237.087L137.914 235.846L131.27 242.546L125.916 237.087ZM171.016 216.355L166.351 204.823L132.064 209.407L130.86 202.031L133.826 197.8L144.682 205.53L168.131 194.425L183.02 200.269L168.646 205.344L181.09 217.13L175.395 213.824L171.016 216.355Z" fill="#E0E0E0"/>
<path d="M174.446 255.413L196.853 258.037L204.434 235.996L182.027 233.365L174.446 255.413Z" fill="#E0E0E0"/>
<path d="M202.778 209.922C213.944 203.477 231.972 203.477 243.057 209.922C254.143 216.367 254.081 226.808 242.927 233.247C231.773 239.687 213.733 239.693 202.648 233.247C191.562 226.802 191.624 216.361 202.778 209.922Z" fill="#E0E0E0"/>
<path d="M153.919 154.661L87.9194 193.048C87.1409 193.499 86.2571 193.737 85.3574 193.737C84.4576 193.737 83.5739 193.499 82.7953 193.048L49.1101 173.594C48.9156 173.482 48.754 173.321 48.6416 173.126C48.5293 172.932 48.4701 172.711 48.4701 172.487C48.4701 172.262 48.5293 172.042 48.6416 171.847C48.754 171.653 48.9156 171.492 49.1101 171.38L115.11 133.011C115.888 132.56 116.772 132.322 117.672 132.322C118.571 132.322 119.455 132.56 120.234 133.011L153.919 152.465C154.109 152.578 154.267 152.739 154.376 152.931C154.485 153.124 154.543 153.342 154.543 153.563C154.543 153.784 154.485 154.002 154.376 154.195C154.267 154.387 154.109 154.548 153.919 154.661Z" fill="#E0E0E0"/>
<path d="M85.3884 178.11L85.345 192.155L151.94 153.451L151.983 139.406L85.3884 178.11Z" fill="#FF5630"/>
<path d="M73.9244 158.253L50.6983 144.854L50.6239 172.112L85.3265 192.155L85.3699 178.111L73.9244 158.253Z" fill="#FF5630"/>
<path opacity="0.3" d="M73.9244 158.253L50.6983 144.854L50.6239 172.112L85.3265 192.155L85.3699 178.111L73.9244 158.253Z" fill="black"/>
<path d="M85.3884 178.11L151.983 139.406L140.525 119.555L73.9243 158.253L85.3884 178.11Z" fill="#FF5630"/>
<path opacity="0.1" d="M85.3884 178.11L151.983 139.406L140.525 119.555L73.9243 158.253L85.3884 178.11Z" fill="black"/>
<g opacity="0.5">
<path d="M140.246 128.73L144.148 136.944C144.211 137.053 144.231 137.182 144.204 137.306C144.178 137.429 144.107 137.539 144.006 137.614L133.013 143.96C132.959 143.985 132.9 143.998 132.84 143.999C132.781 144 132.721 143.988 132.666 143.965C132.612 143.942 132.562 143.907 132.521 143.863C132.481 143.82 132.449 143.768 132.43 143.712L128.546 135.529C128.546 135.467 128.509 135.424 128.497 135.387C128.492 135.331 128.492 135.275 128.497 135.219C128.504 135.171 128.514 135.123 128.528 135.076C128.546 135.035 128.569 134.995 128.596 134.959C128.624 134.919 128.66 134.885 128.701 134.859L139.7 128.513C139.733 128.494 139.769 128.482 139.806 128.476C139.85 128.463 139.898 128.463 139.942 128.476C139.982 128.481 140.021 128.496 140.054 128.519C140.101 128.543 140.143 128.574 140.178 128.612C140.204 128.65 140.227 128.689 140.246 128.73ZM143.212 136.906L140.029 130.151L137.666 137.8C137.637 137.898 137.573 137.982 137.486 138.036C137.446 138.059 137.402 138.074 137.356 138.08C137.31 138.085 137.263 138.08 137.219 138.067L129.713 136.05L132.938 142.874L143.212 136.944M139.117 130.045L130.19 135.201L136.958 137.062L139.117 130.07" fill="white"/>
</g>
<path d="M140.519 119.555L117.312 106.155L50.7168 144.853L73.9242 158.253L140.519 119.555Z" fill="#FF5630"/>
<path opacity="0.2" d="M140.519 119.555L117.312 106.155L50.7168 144.853L73.9242 158.253L140.519 119.555Z" fill="black"/>
<path opacity="0.2" d="M117.312 106.155L50.7168 144.853L64.9167 153.054L131.512 114.35L117.312 106.155Z" fill="black"/>
<path d="M101.518 146.652L79.16 159.649L86.7842 172.862L109.148 159.866L101.518 146.652Z" fill="#455A64"/>
<g opacity="0.5">
<path d="M96.4927 159.834L95.5746 160.362L93.7135 157.055L95.0907 156.255L96.4927 159.834Z" fill="white"/>
<path d="M96.2446 160.529C96.3388 160.475 96.4438 160.442 96.5522 160.433C96.6606 160.424 96.7697 160.439 96.8716 160.477C96.9736 160.514 97.0659 160.574 97.1419 160.652C97.218 160.73 97.2759 160.824 97.3116 160.926C97.4304 161.133 97.465 161.377 97.4084 161.608C97.3518 161.839 97.2082 162.039 97.0076 162.167C96.911 162.22 96.804 162.252 96.694 162.26C96.584 162.268 96.4736 162.251 96.3705 162.213C96.2673 162.174 96.1738 162.113 96.0963 162.034C96.0189 161.956 95.9594 161.861 95.922 161.758C95.804 161.552 95.7716 161.307 95.832 161.077C95.8923 160.848 96.0405 160.651 96.2446 160.529Z" fill="white"/>
<path d="M100.655 158.848C100.916 159.061 101.126 159.329 101.27 159.632C101.415 159.936 101.491 160.267 101.493 160.604C101.513 160.913 101.451 161.221 101.313 161.498C101.174 161.775 100.964 162.01 100.705 162.179L94.9232 165.517C94.6664 165.658 94.3721 165.716 94.0809 165.683C93.7898 165.649 93.5162 165.526 93.2979 165.331C93.0388 165.117 92.8299 164.849 92.6862 164.546C92.5425 164.242 92.4676 163.911 92.4666 163.575L92.3488 155.573C92.3263 155.263 92.3877 154.954 92.5263 154.677C92.665 154.399 92.8758 154.164 93.1366 153.997C93.3919 153.855 93.6848 153.797 93.9748 153.829C94.2649 153.861 94.5378 153.983 94.7557 154.177L100.655 158.848ZM100.841 160.529C100.84 160.327 100.795 160.128 100.708 159.946C100.621 159.763 100.495 159.603 100.339 159.475L94.4456 154.81C94.3142 154.693 94.1503 154.62 93.9761 154.6C93.802 154.581 93.6258 154.615 93.4716 154.698C93.3137 154.798 93.1859 154.939 93.1018 155.107C93.0177 155.274 92.9804 155.46 92.9939 155.647L93.1118 163.65C93.114 163.851 93.1601 164.05 93.2468 164.232C93.3336 164.414 93.459 164.575 93.6143 164.704C93.7456 164.82 93.9095 164.893 94.0837 164.913C94.2579 164.933 94.434 164.899 94.5882 164.816L100.37 161.478C100.525 161.376 100.651 161.234 100.734 161.067C100.816 160.901 100.854 160.715 100.841 160.529Z" fill="white"/>
</g>
<path d="M110.879 158.855L103.255 145.647L101.518 146.652L109.148 159.866L110.879 158.855Z" fill="#FF5630"/>
<path opacity="0.3" d="M110.879 158.855L103.255 145.647L101.518 146.652L109.148 159.866L110.879 158.855Z" fill="black"/>
<path opacity="0.1" d="M86.7842 172.862L109.148 159.865L108.441 158.687L87.969 170.585L80.9404 158.612L79.16 159.648L86.7842 172.862Z" fill="black"/>
<path d="M148.931 148.29L146.593 149.636L148.944 150.994L148.931 148.29Z" fill="#455A64"/>
<path d="M146.592 149.636L88.6824 183.054L88.6886 185.759L148.943 150.994L146.592 149.636Z" fill="#37474F"/>
<path d="M63.949 47.7807C63.949 47.8489 63.949 47.9171 63.9924 47.9792C63.9924 48.0536 64.0359 48.1343 64.0607 48.2087C64.0838 48.2743 64.1107 48.3385 64.1413 48.401L64.2592 48.6492L64.3646 48.8229C64.4225 48.9138 64.4846 49.0069 64.5507 49.102L64.6624 49.2447L64.7679 49.375L64.8175 49.4308C64.8919 49.5114 64.9726 49.5859 65.0532 49.6665L65.1649 49.772C65.2393 49.8402 65.3262 49.9085 65.413 49.9767L65.5557 50.0884L65.6426 50.1628L65.9341 50.3551C66.0334 50.4234 66.1326 50.4916 66.2443 50.5536L73.7444 54.8961L101.22 39.0337L93.7198 34.6912C90.5498 32.8301 85.4008 32.8301 82.206 34.6912L66.3001 43.9407C64.5942 44.927 63.8187 46.2422 63.918 47.5325C63.9219 47.6159 63.9323 47.6989 63.949 47.7807Z" fill="#455A64"/>
<path opacity="0.5" d="M63.949 47.7807C63.949 47.8489 63.949 47.9171 63.9924 47.9792C63.9924 48.0536 64.0359 48.1343 64.0607 48.2087C64.0838 48.2743 64.1107 48.3385 64.1413 48.401L64.2592 48.6492L64.3646 48.8229C64.4225 48.9138 64.4846 49.0069 64.5507 49.102L64.6624 49.2447L64.7679 49.375L64.8175 49.4308C64.8919 49.5114 64.9726 49.5859 65.0532 49.6665L65.1649 49.772C65.2393 49.8402 65.3262 49.9085 65.413 49.9767L65.5557 50.0884L65.6426 50.1628L65.9341 50.3551C66.0334 50.4234 66.1326 50.4916 66.2443 50.5536L73.7444 54.8961L101.22 39.0337L93.7198 34.6912C90.5498 32.8301 85.4008 32.8301 82.206 34.6912L66.3001 43.9407C64.5942 44.927 63.8187 46.2422 63.918 47.5325C63.9219 47.6159 63.9323 47.6989 63.949 47.7807Z" fill="white"/>
<path d="M66.2629 50.6087C66.1575 50.5467 66.0582 50.4785 65.959 50.4102L65.6674 50.2179L65.5806 50.1435L65.4441 50.038C65.3572 49.9698 65.2704 49.9015 65.1959 49.8333L65.0843 49.7278C65.0032 49.656 64.9265 49.5794 64.8547 49.4983L64.8051 49.4425L64.6997 49.3122L64.5942 49.1757C64.5239 49.0806 64.4619 48.9875 64.4081 48.8966C64.3709 48.8407 64.3337 48.7849 64.3026 48.7291L64.1848 48.4809C64.1848 48.4189 64.1289 48.3631 64.1041 48.301C64.1041 48.2266 64.0607 48.1459 64.0359 48.0715C64.0359 48.0095 64.0049 47.9474 63.9925 47.8854C63.9864 47.8049 63.9864 47.724 63.9925 47.6434C63.9925 47.5628 63.9925 47.4884 63.9925 47.4077L64.0669 73.0655V73.14C64.0639 73.1937 64.0639 73.2475 64.0669 73.3013C64.0608 73.388 64.0608 73.4751 64.0669 73.5618V73.6052C64.0669 73.6611 64.1041 73.7107 64.1165 73.7665C64.1289 73.8224 64.16 73.934 64.1848 74.0147V74.0643C64.205 74.113 64.2277 74.1607 64.253 74.207C64.2902 74.2938 64.3274 74.3807 64.3709 74.4613V74.5234C64.3709 74.5668 64.4267 74.604 64.4515 74.6412C64.4763 74.6784 64.5756 74.8335 64.6438 74.9266C64.6646 74.9541 64.6833 74.9831 64.6997 75.0134L64.861 75.1995L64.9168 75.2616C65.0077 75.3649 65.1051 75.4623 65.2083 75.5531L65.258 75.5966C65.3324 75.6648 65.4255 75.733 65.5061 75.8013C65.5868 75.8695 65.655 75.9254 65.7356 75.9812L66.0272 76.1797L66.2381 76.3162L66.3374 76.3782L73.8375 80.7207L73.763 55.0691L66.2629 50.6087Z" fill="#37474F"/>
<path opacity="0.3" d="M66.2629 50.6087C66.1575 50.5467 66.0582 50.4785 65.959 50.4102L65.6674 50.2179L65.5806 50.1435L65.4441 50.038C65.3572 49.9698 65.2704 49.9015 65.1959 49.8333L65.0843 49.7278C65.0032 49.656 64.9265 49.5794 64.8547 49.4983L64.8051 49.4425L64.6997 49.3122L64.5942 49.1757C64.5239 49.0806 64.4619 48.9875 64.4081 48.8966C64.3709 48.8407 64.3337 48.7849 64.3026 48.7291L64.1848 48.4809C64.1848 48.4189 64.1289 48.3631 64.1041 48.301C64.1041 48.2266 64.0607 48.1459 64.0359 48.0715C64.0359 48.0095 64.0049 47.9474 63.9925 47.8854C63.9864 47.8049 63.9864 47.724 63.9925 47.6434C63.9925 47.5628 63.9925 47.4884 63.9925 47.4077L64.0669 73.0655V73.14C64.0639 73.1937 64.0639 73.2475 64.0669 73.3013C64.0608 73.388 64.0608 73.4751 64.0669 73.5618V73.6052C64.0669 73.6611 64.1041 73.7107 64.1165 73.7665C64.1289 73.8224 64.16 73.934 64.1848 74.0147V74.0643C64.205 74.113 64.2277 74.1607 64.253 74.207C64.2902 74.2938 64.3274 74.3807 64.3709 74.4613V74.5234C64.3709 74.5668 64.4267 74.604 64.4515 74.6412C64.4763 74.6784 64.5756 74.8335 64.6438 74.9266C64.6646 74.9541 64.6833 74.9831 64.6997 75.0134L64.861 75.1995L64.9168 75.2616C65.0077 75.3649 65.1051 75.4623 65.2083 75.5531L65.258 75.5966C65.3324 75.6648 65.4255 75.733 65.5061 75.8013C65.5868 75.8695 65.655 75.9254 65.7356 75.9812L66.0272 76.1797L66.2381 76.3162L66.3374 76.3782L73.8375 80.7207L73.763 55.0691L66.2629 50.6087Z" fill="white"/>
<path d="M101.238 39.1074L73.7629 54.9699L73.8374 80.6215L101.313 64.7652L101.238 39.1074Z" fill="#263238"/>
<path d="M44.1039 154.903L43.9365 79.7778C43.998 78.6145 44.3335 77.4822 44.9156 76.4732C45.4978 75.4641 46.3101 74.6069 47.2864 73.9713L140.65 20.1991C140.988 19.9539 141.385 19.802 141.801 19.7584C142.217 19.7149 142.637 19.7813 143.019 19.951L139.502 17.9162C138.882 17.5254 138.019 17.5564 137.064 18.1147L43.6945 71.8931C42.7191 72.5281 41.9073 73.3843 41.3252 74.3922C40.7431 75.4001 40.4071 76.5312 40.3446 77.6934L40.5121 152.8C40.471 153.198 40.53 153.6 40.6839 153.969C40.8377 154.339 41.0815 154.664 41.393 154.915L41.5791 155.02L45.0469 157.043C44.718 156.798 44.4583 156.472 44.293 156.097C44.1277 155.722 44.0626 155.31 44.1039 154.903Z" fill="#FF5630"/>
<path opacity="0.3" d="M139.52 17.9162C138.9 17.5254 138.038 17.5564 137.082 18.1147L43.6944 71.8931C42.5917 72.5904 41.7046 73.5806 41.1323 74.753L44.7242 76.8311C45.2965 75.6587 46.1835 74.6686 47.2862 73.9713L140.649 20.1991C140.988 19.9539 141.385 19.802 141.801 19.7584C142.217 19.7149 142.637 19.7813 143.019 19.951L139.52 17.9162Z" fill="white"/>
<path opacity="0.2" d="M40.3446 77.6937L40.5121 152.8C40.471 153.198 40.53 153.6 40.6839 153.97C40.8377 154.339 41.0815 154.664 41.393 154.915L41.5791 155.021L45.0469 157.043C44.7137 156.8 44.4497 156.474 44.281 156.098C44.1124 155.721 44.0449 155.307 44.0853 154.897L43.9178 79.7719C43.9428 78.7411 44.2129 77.731 44.7057 76.8253L41.1138 74.7471C40.6302 75.6555 40.3667 76.6648 40.3446 77.6937Z" fill="black"/>
<path d="M144.043 22.1163C144.084 21.7059 144.016 21.292 143.846 20.9162C143.676 20.5405 143.41 20.2162 143.075 19.976C142.693 19.8063 142.273 19.7399 141.857 19.7835C141.441 19.827 141.044 19.979 140.705 20.2242L47.2863 73.9716C46.31 74.6072 45.4977 75.4644 44.9156 76.4734C44.3334 77.4825 43.9979 78.6148 43.9364 79.7781L44.1039 154.903C44.0635 155.313 44.131 155.727 44.2996 156.104C44.4682 156.48 44.7322 156.806 45.0654 157.049H45.1213C45.5007 157.206 45.914 157.264 46.3221 157.218C46.7301 157.171 47.1196 157.021 47.4538 156.783L140.86 103.048C141.837 102.413 142.649 101.557 143.231 100.549C143.813 99.5412 144.149 98.4097 144.21 97.2472L144.043 22.1163ZM139.198 100.175L47.4166 153.029L47.2553 79.7719C47.3155 79.1937 47.4969 78.6346 47.7876 78.1312C48.0784 77.6277 48.4719 77.1912 48.9427 76.85L140.755 23.9959L140.916 97.2535C140.852 97.834 140.665 98.3943 140.369 98.8978C140.073 99.4013 139.674 99.8366 139.198 100.175Z" fill="#FF5630"/>
<path d="M140.73 23.9961L138.354 25.3609L138.509 96.0811C138.448 96.659 138.266 97.2175 137.975 97.7207C137.684 98.2239 137.292 98.6607 136.822 99.003L47.4104 150.492V153.023L139.223 100.169C139.694 99.8282 140.088 99.3918 140.38 98.8884C140.672 98.385 140.855 97.8259 140.916 97.2474L140.73 23.9961Z" fill="#FF5630"/>
<path opacity="0.3" d="M140.73 23.9961L138.354 25.3609L138.509 96.0811C138.448 96.659 138.266 97.2175 137.975 97.7207C137.684 98.2239 137.292 98.6607 136.822 99.003L47.4104 150.492V153.023L139.223 100.169C139.694 99.8282 140.088 99.3918 140.38 98.8884C140.672 98.385 140.855 97.8259 140.916 97.2474L140.73 23.9961Z" fill="black"/>
<path d="M138.509 96.0933L138.354 25.373L48.9426 76.8624C48.4719 77.2035 48.0783 77.6401 47.7876 78.1435C47.4968 78.6469 47.3155 79.206 47.2552 79.7842L47.4103 150.505L136.822 99.0152C137.291 98.6729 137.684 98.2361 137.975 97.7329C138.265 97.2297 138.447 96.6712 138.509 96.0933Z" fill="#455A64"/>
<g opacity="0.5">
<path d="M111.083 100.343L111.09 103.004L83.8561 118.724L83.8499 116.063L111.083 100.343Z" fill="white"/>
<path d="M86.4678 92.3276L88.1117 93.2644L84.3028 99.8587L88.1303 102.042L86.505 104.859L82.6712 102.681L78.8685 109.269L77.2245 108.339L81.0335 101.745L77.1997 99.5609L78.8312 96.7383L82.665 98.9158L86.4678 92.3276Z" fill="white"/>
<path d="M115.972 75.2925L117.61 76.2292L113.807 82.8236L117.634 85.0072L116.003 87.8298L112.175 85.6462L108.372 92.2343L106.729 91.3038L110.531 84.7156L106.704 82.532L108.335 79.7032L112.163 81.8868L115.972 75.2925Z" fill="white"/>
</g>
<path d="M76.574 72.4121L76.5802 73.7087L71.4809 76.6553L71.4871 79.8439L76.0343 77.2198L76.0405 78.4854L71.4933 81.1095L71.4995 84.478L76.7849 81.4258L76.7911 82.71L70.2153 86.5065L70.1843 76.1032L76.574 72.4121Z" fill="white"/>
<path d="M84.1981 74.9305L86.3569 77.1886L84.9487 78.0013L82.976 75.9417C82.8023 76.0533 82.61 76.1898 82.4115 76.3015L80.1596 77.5918V80.7556L78.8693 81.5V71.0967L82.4053 69.0558C84.7564 67.6972 86.1894 68.2369 86.1956 70.5012C86.1761 71.3356 85.9893 72.1576 85.6461 72.9184C85.303 73.6793 84.8106 74.3635 84.1981 74.9305ZM82.3743 75.0484C84.0244 74.093 84.8929 72.7345 84.8929 71.2456C84.8929 69.7568 84.012 69.4218 82.3556 70.3709L80.1596 71.6426V76.3201L82.3681 75.0484" fill="white"/>
<path d="M93.6151 69.4961L95.7678 71.7542L94.3595 72.5606L92.3992 70.4949C92.2131 70.6127 92.0208 70.7492 91.8285 70.8609L89.5952 72.1512V75.3088L88.2925 76.0594L88.2615 65.6561L91.7975 63.6151C94.161 62.2504 95.5816 62.7963 95.5878 65.0606C95.5741 65.8945 95.3923 66.7172 95.0534 67.4793C94.7144 68.2414 94.2252 68.9273 93.6151 69.4961ZM91.7851 69.614C93.4476 68.6586 94.3099 67.3 94.3037 65.8112C94.2975 64.3223 93.429 63.9501 91.7727 64.9365L89.5766 66.1772V70.8485L91.7727 69.6078" fill="white"/>
<path d="M101.779 57.7404C104.54 56.1461 106.587 57.2317 106.593 60.2901C106.523 61.9287 106.049 63.5247 105.215 64.9368C104.381 66.3489 103.211 67.5335 101.81 68.3857C99.0246 69.9986 96.9774 68.8944 96.9712 65.8484C96.965 62.8025 98.9936 59.3471 101.779 57.7404ZM101.81 67.0457C102.838 66.403 103.694 65.5189 104.302 64.4701C104.911 63.4214 105.254 62.2399 105.303 61.0283C105.303 58.7144 103.789 57.9265 101.785 59.0556C100.749 59.6964 99.8853 60.5819 99.2709 61.6344C98.6566 62.6868 98.3099 63.874 98.2615 65.0916C98.2615 67.3993 99.7752 68.1934 101.81 67.0457Z" fill="white"/>
<path d="M113.907 57.7841L116.072 60.0298L114.651 60.8486L112.691 58.7829C112.517 58.8945 112.313 59.0372 112.126 59.1427L109.887 60.4392V63.5968L108.597 64.3412V53.9441L112.133 51.897C114.484 50.5446 115.917 51.0781 115.923 53.3486C115.9 54.1851 115.71 55.0085 115.364 55.7703C115.018 56.5322 114.522 57.2169 113.907 57.7841ZM112.083 57.8958C113.739 56.9404 114.602 55.5819 114.564 54.0992C114.527 52.6166 113.696 52.2381 112.04 53.2183L109.837 54.49V59.1675L112.04 57.9268" fill="white"/>
<path d="M80.2642 33.0716L77.6091 27.9909V27.9165L78.4776 22.1782C78.5533 21.692 78.4793 21.1942 78.2655 20.751C78.0517 20.3078 77.7081 19.9401 77.2803 19.6968L65.3137 12.8481C65.048 12.6951 64.7324 12.6539 64.4363 12.7336C64.1402 12.8133 63.8879 13.0073 63.7349 13.273C63.5819 13.5387 63.5407 13.8544 63.6204 14.1504C63.7001 14.4465 63.8942 14.6988 64.1599 14.8518L76.1327 21.7253L76.1885 21.8494L75.3262 27.5939C75.2489 28.1039 75.3358 28.6253 75.5744 29.0827L78.2295 34.1634V34.2627L74.4205 43.3819C74.297 43.6787 74.2338 43.9971 74.2344 44.3186V46.0618C74.2304 46.1717 74.2596 46.2802 74.3183 46.3732C74.3769 46.4661 74.4623 46.5392 74.5632 46.5829C74.8181 46.7116 75.0996 46.7786 75.3852 46.7786C75.6707 46.7786 75.9522 46.7116 76.2071 46.5829C76.3015 46.5411 76.383 46.4747 76.443 46.3907C76.503 46.3067 76.5394 46.2081 76.5483 46.1052V44.2442L80.3511 35.125C80.4874 34.7971 80.5503 34.4434 80.5353 34.0887C80.5202 33.7339 80.4277 33.3868 80.2642 33.0716Z" fill="#FF5630"/>
<path d="M83.577 27.2338V27.1531L85.0535 22.8665C85.1947 22.4555 85.2225 22.0141 85.1341 21.5886L83.0001 11.0426C82.9392 10.7407 82.7609 10.4753 82.5044 10.3049C82.2479 10.1344 81.9341 10.0729 81.6322 10.1338C81.3303 10.1946 81.065 10.3729 80.8945 10.6295C80.7241 10.886 80.6625 11.1997 80.7234 11.5016L82.8636 22.1221L81.3872 26.4149C81.2033 26.9432 81.2033 27.5182 81.3872 28.0465L82.8822 32.1036V32.178L80.5621 39.6967C80.4933 39.9304 80.4578 40.1727 80.4567 40.4163V42.054C80.4661 42.1551 80.502 42.252 80.5608 42.3348C80.6196 42.4176 80.6993 42.4833 80.7917 42.5255C81.0457 42.6571 81.3276 42.7258 81.6136 42.7258C81.8997 42.7258 82.1816 42.6571 82.4356 42.5255C82.5377 42.4828 82.6243 42.4101 82.6842 42.3171C82.744 42.224 82.7741 42.115 82.7706 42.0044V40.3667L85.0907 32.848C85.2474 32.3382 85.2321 31.7911 85.0473 31.2909L83.577 27.2338Z" fill="#455A64"/>
<path d="M104.396 16.9922H100.382C99.9823 16.9909 99.5882 17.0888 99.2352 17.2772C98.8823 17.4656 98.5816 17.7385 98.36 18.0716L96.1143 21.4277L96.0399 21.4774L93.0994 22.1721C92.7304 22.2595 92.3869 22.4317 92.0961 22.6751C91.8054 22.9185 91.5754 23.2263 91.4245 23.5741C91.197 24.1084 91.164 24.7055 91.3314 25.2615L91.6602 26.5022C91.6723 26.5321 91.6723 26.5654 91.6602 26.5953C91.6412 26.6205 91.6153 26.6399 91.5858 26.6511L90.68 26.8744C90.2701 26.9763 89.8938 27.1832 89.5881 27.4747C89.2824 27.7662 89.058 28.1323 88.9368 28.537L86.1391 37.8857C86.0771 38.1161 86.0499 38.3545 86.0584 38.5929V40.0321C86.0654 40.1347 86.1004 40.2334 86.1594 40.3176C86.2184 40.4018 86.2993 40.4682 86.3934 40.5098C86.6483 40.6385 86.9298 40.7055 87.2154 40.7055C87.5009 40.7055 87.7824 40.6385 88.0373 40.5098C88.1436 40.4663 88.233 40.3897 88.2922 40.2913C88.3514 40.193 88.3774 40.0781 88.3661 39.9639V38.5557L91.1639 29.207L91.2446 29.1263L92.1503 28.903C92.5135 28.8088 92.8502 28.6322 93.1342 28.3869C93.4182 28.1416 93.6419 27.8342 93.788 27.4886C94.0026 26.9555 94.0332 26.366 93.8749 25.8136L93.5399 24.5729C93.5335 24.5582 93.5303 24.5424 93.5303 24.5264C93.5303 24.5104 93.5335 24.4946 93.5399 24.4799C93.5457 24.4645 93.5558 24.451 93.569 24.4411C93.5822 24.4312 93.5979 24.4253 93.6143 24.424L96.6044 23.7665C97.2039 23.6218 97.728 23.2591 98.0746 22.7491L100.314 19.393L100.413 19.3371H104.427C104.586 19.3488 104.746 19.3275 104.896 19.2747C105.047 19.2218 105.185 19.1385 105.302 19.0299C105.418 18.9213 105.512 18.7898 105.575 18.6436C105.639 18.4974 105.672 18.3397 105.672 18.1802C105.672 18.0207 105.639 17.8629 105.575 17.7167C105.512 17.5705 105.418 17.439 105.302 17.3304C105.185 17.2219 105.047 17.1386 104.896 17.0857C104.746 17.0328 104.586 17.0116 104.427 17.0232L104.396 16.9922Z" fill="#FF5630"/>
<g opacity="0.1">
<path d="M80.2642 33.0716L77.6091 27.9909V27.9165L78.4776 22.1782C78.5533 21.692 78.4793 21.1942 78.2655 20.751C78.0517 20.3078 77.7081 19.9401 77.2803 19.6968L65.3137 12.8481C65.048 12.6951 64.7324 12.6539 64.4363 12.7336C64.1402 12.8133 63.8879 13.0073 63.7349 13.273C63.5819 13.5387 63.5407 13.8544 63.6204 14.1504C63.7001 14.4465 63.8942 14.6988 64.1599 14.8518L76.1327 21.7253L76.1885 21.8494L75.3262 27.5939C75.2489 28.1039 75.3358 28.6253 75.5744 29.0827L78.2295 34.1634V34.2627L74.4205 43.3819C74.297 43.6787 74.2338 43.9971 74.2344 44.3186V46.0618C74.2304 46.1717 74.2596 46.2802 74.3183 46.3732C74.3769 46.4661 74.4623 46.5392 74.5632 46.5829C74.8181 46.7116 75.0996 46.7786 75.3852 46.7786C75.6707 46.7786 75.9522 46.7116 76.2071 46.5829C76.3015 46.5411 76.383 46.4747 76.443 46.3907C76.503 46.3067 76.5394 46.2081 76.5483 46.1052V44.2442L80.3511 35.125C80.4874 34.7971 80.5503 34.4434 80.5353 34.0887C80.5202 33.7339 80.4277 33.3868 80.2642 33.0716Z" fill="white"/>
<path d="M83.577 27.2338V27.1531L85.0535 22.8665C85.1947 22.4555 85.2225 22.0141 85.1341 21.5886L83.0001 11.0426C82.9392 10.7407 82.7609 10.4753 82.5044 10.3049C82.2479 10.1344 81.9341 10.0729 81.6322 10.1338C81.3303 10.1946 81.065 10.3729 80.8945 10.6295C80.7241 10.886 80.6625 11.1997 80.7234 11.5016L82.8636 22.1221L81.3872 26.4149C81.2033 26.9432 81.2033 27.5182 81.3872 28.0465L82.8822 32.1036V32.178L80.5621 39.6967C80.4933 39.9304 80.4578 40.1727 80.4567 40.4163V42.054C80.4661 42.1551 80.502 42.252 80.5608 42.3348C80.6196 42.4176 80.6993 42.4833 80.7917 42.5255C81.0457 42.6571 81.3276 42.7258 81.6136 42.7258C81.8997 42.7258 82.1816 42.6571 82.4356 42.5255C82.5377 42.4828 82.6243 42.4101 82.6842 42.3171C82.744 42.224 82.7741 42.115 82.7706 42.0044V40.3667L85.0907 32.848C85.2474 32.3382 85.2321 31.7911 85.0473 31.2909L83.577 27.2338Z" fill="white"/>
<path d="M104.396 16.9922H100.382C99.9823 16.9909 99.5882 17.0888 99.2352 17.2772C98.8823 17.4656 98.5816 17.7385 98.36 18.0716L96.1143 21.4277L96.0399 21.4774L93.0994 22.1721C92.7304 22.2595 92.3869 22.4317 92.0961 22.6751C91.8054 22.9185 91.5754 23.2263 91.4245 23.5741C91.197 24.1084 91.164 24.7055 91.3314 25.2615L91.6602 26.5022C91.6723 26.5321 91.6723 26.5654 91.6602 26.5953C91.6412 26.6205 91.6153 26.6399 91.5858 26.6511L90.68 26.8744C90.2701 26.9763 89.8938 27.1832 89.5881 27.4747C89.2824 27.7662 89.058 28.1323 88.9368 28.537L86.1391 37.8857C86.0771 38.1161 86.0499 38.3545 86.0584 38.5929V40.0321C86.0654 40.1347 86.1004 40.2334 86.1594 40.3176C86.2184 40.4018 86.2993 40.4682 86.3934 40.5098C86.6483 40.6385 86.9298 40.7055 87.2154 40.7055C87.5009 40.7055 87.7824 40.6385 88.0373 40.5098C88.1436 40.4663 88.233 40.3897 88.2922 40.2913C88.3514 40.193 88.3774 40.0781 88.3661 39.9639V38.5557L91.1639 29.207L91.2446 29.1263L92.1503 28.903C92.5135 28.8088 92.8502 28.6322 93.1342 28.3869C93.4182 28.1416 93.6419 27.8342 93.788 27.4886C94.0026 26.9555 94.0332 26.366 93.8749 25.8136L93.5399 24.5729C93.5335 24.5582 93.5303 24.5424 93.5303 24.5264C93.5303 24.5104 93.5335 24.4946 93.5399 24.4799C93.5457 24.4645 93.5558 24.451 93.569 24.4411C93.5822 24.4312 93.5979 24.4253 93.6143 24.424L96.6044 23.7665C97.2039 23.6218 97.728 23.2591 98.0746 22.7491L100.314 19.393L100.413 19.3371H104.427C104.586 19.3488 104.746 19.3275 104.896 19.2747C105.047 19.2218 105.185 19.1385 105.302 19.0299C105.418 18.9213 105.512 18.7898 105.575 18.6436C105.639 18.4974 105.672 18.3397 105.672 18.1802C105.672 18.0207 105.639 17.8629 105.575 17.7167C105.512 17.5705 105.418 17.439 105.302 17.3304C105.185 17.2219 105.047 17.1386 104.896 17.0857C104.746 17.0328 104.586 17.0116 104.427 17.0232L104.396 16.9922Z" fill="white"/>
</g>
<path d="M44.1163 2.63721L50.8224 10.342L55.4812 7.60003L60.9465 20.6212L54.6065 11.3904L49.6499 14.7155L44.1163 2.63721Z" fill="#FF5630"/>
<path d="M75.9652 0.0874023L72.8511 6.32195L75.9652 6.79963L73.4094 13.1086L78.763 5.83808L74.526 5.11847L75.9652 0.0874023Z" fill="#FF5630"/>
<path d="M103.286 2.18408L102.008 9.5973L99.4518 8.63576L98.118 16.1482L100.196 10.3914L103.075 11.6197L103.286 2.18408Z" fill="#FF5630"/>
<path d="M107.386 15.3484L112.529 10.8446V13.0965L116.232 10.5034L111.251 15.8571L111.381 12.6933L107.386 15.3484Z" fill="#FF5630"/>
<path d="M105.556 22.1159L110.054 26.4087L110.903 23.9955L115.748 27.7549L110.655 21.3652L109.731 24.5601L105.556 22.1159Z" fill="#FF5630"/>
<path d="M69.8548 31.2725L63.0185 33.8283L65.4316 35.6708L60.1462 38.7167L68.7754 36.3842L66.1885 34.306L69.8548 31.2725Z" fill="#FF5630"/>
<g opacity="0.5">
<path d="M44.1163 2.63721L50.8224 10.342L55.4812 7.60003L60.9465 20.6212L54.6065 11.3904L49.6499 14.7155L44.1163 2.63721Z" fill="white"/>
<path d="M75.9652 0.0874023L72.8511 6.32195L75.9652 6.79963L73.4094 13.1086L78.763 5.83808L74.526 5.11847L75.9652 0.0874023Z" fill="white"/>
<path d="M103.286 2.18408L102.008 9.5973L99.4518 8.63576L98.118 16.1482L100.196 10.3914L103.075 11.6197L103.286 2.18408Z" fill="white"/>
<path d="M107.386 15.3484L112.529 10.8446V13.0965L116.232 10.5034L111.251 15.8571L111.381 12.6933L107.386 15.3484Z" fill="white"/>
<path d="M105.556 22.1159L110.054 26.4087L110.904 23.9955L115.749 27.7549L110.655 21.3652L109.731 24.5601L105.556 22.1159Z" fill="white"/>
<path d="M69.8548 31.2725L63.0185 33.8283L65.4316 35.6708L60.1462 38.7167L68.7754 36.3842L66.1885 34.306L69.8548 31.2725Z" fill="white"/>
</g>
<path d="M166.326 202.763L128.528 207.819L133.739 220.716L171.543 215.654L166.326 202.763Z" fill="#FF5630"/>
<path opacity="0.2" d="M166.326 202.763L151.661 213.942L128.528 207.819L166.326 202.763Z" fill="white"/>
<path opacity="0.1" d="M166.326 202.763L171.543 215.654L133.739 220.716L128.528 207.819L151.661 213.942L166.326 202.763Z" fill="white"/>
<path d="M184 157.918L175.476 170.182L211.5 178.638L220.03 166.373L184 157.918Z" fill="#FF5630"/>
<path opacity="0.3" d="M220.03 166.373L196.897 170.623L184 157.918L220.03 166.373Z" fill="white"/>
<path opacity="0.1" d="M220.03 166.373L211.5 178.638L175.476 170.182L184 157.918L196.897 170.623L220.03 166.373Z" fill="white"/>
<path d="M102.262 179.413L93.7321 191.677L129.756 200.133L138.286 187.869L102.262 179.413Z" fill="#FF5630"/>
<path opacity="0.3" d="M138.286 187.869L115.153 192.118L102.262 179.413L138.286 187.869Z" fill="white"/>
<path opacity="0.1" d="M138.286 187.869L129.756 200.133L93.7321 191.677L102.262 179.413L115.153 192.118L138.286 187.869Z" fill="white"/>
<path d="M236.209 173.768L204.713 186.863L218.082 197.62L249.571 184.525L236.209 173.768Z" fill="#FF5630"/>
<path opacity="0.5" d="M236.209 173.768L230.111 187.366L204.713 186.863L236.209 173.768Z" fill="white"/>
<path opacity="0.3" d="M236.209 173.768L249.571 184.525L218.082 197.62L204.713 186.863L230.111 187.366L236.209 173.768Z" fill="white"/>
<path d="M175.879 179.413L163.119 190.369L195.327 202.987L208.082 192.037L175.879 179.413Z" fill="#FF5630"/>
<path opacity="0.2" d="M208.082 192.037L183.925 193.39L175.879 179.413L208.082 192.037Z" fill="white"/>
<path opacity="0.1" d="M208.082 192.037L195.327 202.987L163.119 190.369L175.879 179.413L183.925 193.39L208.082 192.037Z" fill="white"/>
<path d="M204.434 233.93L182.027 231.306L174.446 253.347L196.853 255.977L204.434 233.93Z" fill="#FF5630"/>
<path opacity="0.5" d="M182.027 231.306L193.578 243.7L174.446 253.347L182.027 231.306Z" fill="white"/>
<path opacity="0.3" d="M196.853 255.977L174.446 253.347L193.578 243.7L182.027 231.306L204.434 233.93L196.853 255.977Z" fill="white"/>
<path d="M165.308 246.641L132.144 258.272L144.024 269.606L177.188 257.974L165.308 246.641Z" fill="#FF5630"/>
<path opacity="0.5" d="M165.308 246.641L157.399 259.929L132.144 258.272L165.308 246.641Z" fill="white"/>
<path opacity="0.3" d="M165.308 246.641L177.188 257.974L144.024 269.606L132.144 258.272L157.399 259.929L165.308 246.641Z" fill="white"/>
<path d="M195.16 136.236L167.616 152.142L183.721 161.497L211.264 145.597L195.16 136.236Z" fill="#FF5630"/>
<path opacity="0.5" d="M167.616 152.142L191.798 150.833L195.16 136.236L167.616 152.142Z" fill="white"/>
<path opacity="0.3" d="M167.616 152.142L183.721 161.497L211.264 145.597L195.16 136.236L191.798 150.833L167.616 152.142Z" fill="white"/>
<path d="M158.801 179.127L129.955 192.521L145.166 203.272L174.012 189.878L158.801 179.127Z" fill="#FF5630"/>
<path opacity="0.6" d="M129.955 192.521L154.161 193.365L158.801 179.127L129.955 192.521Z" fill="white"/>
<path opacity="0.4" d="M129.955 192.521L145.166 203.272L174.012 189.878L158.801 179.127L154.161 193.365L129.955 192.521Z" fill="white"/>
<path d="M210.086 172.49L171.301 173.526L172.43 186.745L211.215 185.709L210.086 172.49Z" fill="#FF5630"/>
<path opacity="0.5" d="M210.086 172.49L192.176 181.956L171.301 173.526L210.086 172.49Z" fill="white"/>
<path opacity="0.3" d="M210.086 172.49L211.215 185.709L172.43 186.745L171.301 173.526L192.176 181.956L210.086 172.49Z" fill="white"/>
<path d="M151.115 169.443L112.33 170.479L113.459 183.699L152.238 182.663L151.115 169.443Z" fill="#FF5630"/>
<path opacity="0.5" d="M151.115 169.443L133.205 178.91L112.33 170.479L151.115 169.443Z" fill="white"/>
<path opacity="0.3" d="M151.115 169.443L152.238 182.663L113.459 183.699L112.33 170.479L133.205 178.91L151.115 169.443Z" fill="white"/>
<path d="M167.908 230.108L148.094 223.52L128.782 242.993L148.633 249.618L167.908 230.108Z" fill="#FF5630"/>
<path opacity="0.2" d="M148.087 223.489L152.238 237.36L128.776 242.962L148.087 223.489Z" fill="white"/>
<path opacity="0.1" d="M148.596 249.581L128.776 242.962L152.238 237.36L148.087 223.489L167.908 230.108L148.596 249.581Z" fill="white"/>
<path d="M156.959 155.628L146.121 177.204L168.069 180.939L178.894 159.357L156.959 155.628Z" fill="#FF5630"/>
<path opacity="0.5" d="M156.959 155.628L166.624 168.55L146.121 177.204L156.959 155.628Z" fill="white"/>
<path opacity="0.3" d="M168.069 180.939L146.121 177.204L166.624 168.55L156.959 155.628L178.894 159.357L168.069 180.939Z" fill="white"/>
<path d="M188.156 196.374L168.671 203.253L188.956 222.472L208.435 215.592L188.156 196.374Z" fill="#FF5630"/>
<path opacity="0.5" d="M188.156 196.374L208.436 215.592L185.458 211.008L188.156 196.374Z" fill="white"/>
<path opacity="0.3" d="M188.156 196.374L185.458 211.008L208.435 215.592L188.956 222.472L168.671 203.253L188.156 196.374Z" fill="white"/>
<path d="M175.42 211.733L147.877 227.639L163.981 237L191.525 221.095L175.42 211.733Z" fill="#FF5630"/>
<path opacity="0.6" d="M147.877 227.639L172.058 226.33L175.42 211.733L147.877 227.639Z" fill="white"/>
<path opacity="0.4" d="M147.877 227.639L163.981 237L191.525 221.095L175.42 211.733L172.058 226.33L147.877 227.639Z" fill="white"/>
<path d="M112.492 221.379L92.6403 227.893L111.859 247.471L131.716 240.958L112.492 221.379Z" fill="#FF5630"/>
<path opacity="0.5" d="M115.364 232.9L111.859 247.472L92.6403 227.894L115.364 232.9Z" fill="white"/>
<path opacity="0.3" d="M112.492 221.379L131.716 240.958L111.859 247.471L92.6403 227.893L111.859 247.471L115.364 232.899L92.6403 227.893L112.492 221.379Z" fill="white"/>
<path d="M132.12 211.51L109.644 213.855L116.629 235.989L139.105 233.65L132.12 211.51Z" fill="#FF5630"/>
<path opacity="0.6" d="M132.12 211.51L139.105 233.65L120.5 224.574L132.12 211.51Z" fill="white"/>
<path opacity="0.4" d="M132.12 211.51L120.5 224.574L139.105 233.65L116.629 235.989L109.644 213.855L132.12 211.51Z" fill="white"/>
<path d="M108.335 234.035L88.5088 227.416L92.6589 241.287L88.5088 227.416L69.2034 246.888L89.0237 253.514L108.335 234.035Z" fill="#FF5630"/>
<path opacity="0.6" d="M88.5088 227.416L92.6589 241.287L69.2034 246.888L88.5088 227.416Z" fill="white"/>
<path opacity="0.4" d="M89.0237 253.514L69.2034 246.888L92.6589 241.287L88.5088 227.416L108.335 234.035L89.0237 253.514Z" fill="white"/>
<path d="M66.1884 195.778L50.084 205.133L77.6339 221.039L93.732 211.677L66.1884 195.778Z" fill="#FF5630"/>
<path opacity="0.2" d="M93.7322 211.677L69.5508 210.369L66.1885 195.778L93.7322 211.677Z" fill="white"/>
<path opacity="0.1" d="M93.732 211.677L77.6339 221.039L50.084 205.133L66.1884 195.778L69.5507 210.369L93.732 211.677Z" fill="white"/>
<path d="M68.0929 207.614L45.9587 210.853L55.5928 232.658L77.727 229.42L68.0929 207.614Z" fill="#FF5630"/>
<path opacity="0.5" d="M68.0929 207.614L77.727 229.42L58.0742 221.119L68.0929 207.614Z" fill="white"/>
<path opacity="0.3" d="M68.0929 207.614L58.0742 221.119L77.727 229.42L55.5928 232.658L45.9587 210.853L68.0929 207.614Z" fill="white"/>
<path d="M130.432 197.49L91.778 199.531L93.9244 212.714L132.579 210.673L130.432 197.49Z" fill="#FF5630"/>
<path opacity="0.6" d="M130.432 197.49L113.273 207.416L91.778 199.531L130.432 197.49Z" fill="white"/>
<path opacity="0.3" d="M130.432 197.49L132.579 210.673L93.9244 212.714L91.778 199.531L113.273 207.416L130.432 197.49Z" fill="white"/>
<path opacity="0.1" d="M128.596 160.008L122.895 163.302L112.132 169.512L140.159 180.486L152.914 169.531L128.596 160.008Z" fill="black"/>
<path d="M130.525 158.91L124.818 162.198L114.055 168.408L140.159 178.637L152.914 167.682L130.525 158.91Z" fill="#FF5630"/>
<path opacity="0.6" d="M128.757 169.034L152.914 167.682L130.525 158.91L124.818 162.198L128.757 169.034Z" fill="white"/>
<path opacity="0.4" d="M152.914 167.682L128.757 169.035L124.818 162.198L114.055 168.408L140.159 178.638L152.914 167.682Z" fill="white"/>
<path d="M248.126 120.715L248.951 106.739C249.066 104.834 248.708 102.931 247.908 101.199C247.108 99.4667 245.891 97.9599 244.366 96.8131L239.348 93.0352L240.08 123.023L248.126 120.715Z" fill="#FF5630"/>
<path opacity="0.1" d="M248.126 120.715L248.951 106.739C249.066 104.834 248.708 102.931 247.908 101.199C247.108 99.4667 245.891 97.9599 244.366 96.8131L239.348 93.0352L240.08 123.023L248.126 120.715Z" fill="black"/>
<path opacity="0.1" d="M240.322 105.424C242.734 106.248 245.231 106.797 247.766 107.062C247.179 107.509 246.507 107.83 245.791 108.008C245.075 108.185 244.331 108.213 243.603 108.091C242.902 107.898 242.248 107.561 241.683 107.101C241.118 106.642 240.655 106.071 240.322 105.424Z" fill="black"/>
<path d="M231.035 228.75C230.626 230.034 229.211 230.772 227.865 230.878C226.515 230.878 225.171 230.707 223.864 230.369C220.886 229.829 218.014 230.369 215.049 230.295C214.074 230.302 213.102 230.195 212.151 229.978C211.193 229.758 210.327 229.246 209.67 228.514C209.3 228.069 209.054 227.534 208.957 226.963C208.899 227.395 208.932 227.834 209.055 228.252C209.178 228.67 209.387 229.057 209.67 229.389C210.329 230.117 211.195 230.626 212.151 230.847C213.102 231.064 214.074 231.17 215.049 231.163C218.014 231.231 220.886 230.698 223.864 231.238C225.17 231.581 226.515 231.754 227.865 231.753C229.211 231.641 230.626 230.909 231.035 229.618C231.163 229.173 231.199 228.707 231.14 228.248C231.117 228.417 231.082 228.585 231.035 228.75Z" fill="#263238"/>
<path d="M230.96 226.281L230.408 223.576C230.341 223.094 230.186 222.63 229.949 222.205C229.831 221.991 229.656 221.813 229.444 221.692C229.232 221.57 228.99 221.51 228.746 221.516C227.121 221.299 224.825 220.71 223.473 221.64C221.331 223.106 218.777 223.847 216.184 223.756C214.838 223.706 213.491 223.427 212.151 223.594C210.811 223.762 209.428 224.5 209.05 225.79C208.94 226.171 208.917 226.572 208.981 226.963C209.079 227.534 209.325 228.069 209.695 228.514C210.351 229.246 211.218 229.757 212.176 229.978C213.126 230.195 214.099 230.301 215.073 230.294C218.039 230.363 220.911 229.829 223.888 230.369C225.195 230.707 226.54 230.878 227.89 230.877C229.236 230.772 230.65 230.034 231.06 228.75C231.107 228.585 231.142 228.417 231.165 228.247C231.199 227.585 231.13 226.922 230.96 226.281Z" fill="#37474F"/>
<path d="M223.076 218.806L222.964 222.329C222.95 222.69 223.077 223.041 223.318 223.31C223.559 223.579 223.895 223.743 224.254 223.768C225.435 223.862 226.622 223.862 227.803 223.768C228.277 223.724 228.72 223.513 229.053 223.172C229.386 222.831 229.587 222.383 229.621 221.907L229.763 219.302L223.076 218.806Z" fill="#FFA8A7"/>
<path d="M246.109 216.932C246.093 217.452 245.929 217.958 245.638 218.39C245.217 218.895 244.626 219.229 243.975 219.326C243.198 219.458 242.398 219.369 241.669 219.069C240.939 218.768 240.309 218.268 239.85 217.627C239.403 217.006 239.149 216.231 238.733 215.573C238.098 214.695 237.315 213.933 236.42 213.321C235.523 212.712 234.735 211.957 234.087 211.088C233.782 210.662 233.583 210.17 233.507 209.652C233.43 209.135 233.478 208.606 233.647 208.11C233.559 208.228 233.484 208.355 233.423 208.489C233.228 209.011 233.164 209.574 233.237 210.127C233.311 210.679 233.52 211.206 233.845 211.659C234.503 212.553 235.306 213.331 236.221 213.96C237.138 214.59 237.938 215.375 238.585 216.28C239.013 216.957 239.267 217.732 239.72 218.396C240.183 219.056 240.824 219.571 241.569 219.881C242.314 220.19 243.131 220.282 243.926 220.145C244.592 220.047 245.198 219.704 245.626 219.184C246.006 218.579 246.178 217.867 246.116 217.155C246.109 217.081 246.109 217.006 246.109 216.932Z" fill="#263238"/>
<path d="M245.005 212.515C243.938 210.654 241.73 209.271 240.042 207.943C239.111 207.133 237.965 206.611 236.742 206.442C236.127 206.364 235.504 206.471 234.951 206.751C234.398 207.031 233.941 207.47 233.64 208.011C233.64 208.042 233.64 208.079 233.609 208.11C233.441 208.606 233.393 209.135 233.47 209.653C233.546 210.17 233.745 210.663 234.05 211.088C234.698 211.957 235.486 212.712 236.382 213.321C237.278 213.933 238.061 214.695 238.696 215.573C239.112 216.231 239.366 216.988 239.813 217.627C240.272 218.268 240.902 218.768 241.632 219.069C242.361 219.369 243.16 219.459 243.938 219.326C244.589 219.229 245.18 218.895 245.601 218.39C245.892 217.958 246.055 217.453 246.072 216.932C246.072 216.764 246.072 216.597 246.072 216.423C246.051 215.052 245.684 213.707 245.005 212.515Z" fill="#37474F"/>
<path d="M240.365 210.883V214.084C241.149 214.451 242.009 214.622 242.873 214.585C243.737 214.547 244.579 214.301 245.328 213.867L245.626 210.983L240.365 210.883Z" fill="#FFA8A7"/>
<path d="M246.488 152.799C247.443 155.684 246.265 169.363 245.706 182.489C247.784 187.452 247.846 201.665 246.643 211.646C246.643 211.646 242.573 212.887 238.814 211.59L235.464 183.91L234.807 168.308C234.807 168.308 233.622 182.148 232.263 191.032C233.541 197.856 233.678 199.264 230.52 220.188C230.52 220.188 225.396 221.733 221.556 219.847C219.769 190.455 221.847 163.854 222.176 154.22L246.488 152.799Z" fill="#455A64"/>
<path opacity="0.3" d="M235.204 177.837L234.67 165.107C237.958 165.107 241.016 162.626 243.355 160.318C241.122 164.289 236.804 166.05 236.804 166.05L235.204 177.837Z" fill="black"/>
<path d="M221.785 127.198L221.686 155.027C236.358 161.175 245.88 155.647 247.164 152.732C246.488 142.589 248.882 130.722 248.696 125.678C248.51 120.635 247.896 114.952 240.08 116.094L231.767 116.906L227.548 117.93L221.785 127.198Z" fill="#FF5630"/>
<path d="M240.08 112.111C240.673 112.149 241.258 111.951 241.705 111.559C241.873 111.372 241.996 111.149 242.063 110.906C242.13 110.664 242.139 110.409 242.09 110.163C242.336 110.116 242.567 110.009 242.762 109.85C242.957 109.692 243.109 109.489 243.206 109.257C243.282 109.001 243.298 108.73 243.253 108.467C243.208 108.203 243.103 107.954 242.946 107.737C243.302 107.645 243.633 107.477 243.918 107.245C244.203 107.012 244.434 106.721 244.596 106.391C244.762 106.052 244.855 105.682 244.868 105.304C244.881 104.927 244.813 104.551 244.67 104.201C245.062 104.097 245.421 103.894 245.712 103.612C246.003 103.329 246.217 102.977 246.333 102.588C246.455 102.185 246.475 101.758 246.393 101.345C246.311 100.931 246.128 100.545 245.861 100.219C246.198 99.7668 246.41 99.2341 246.475 98.6743C246.541 98.1145 246.457 97.5474 246.234 97.0301C245.977 96.5103 245.59 96.0658 245.111 95.7397C244.631 95.4136 244.076 95.217 243.498 95.169C243.579 94.6273 243.523 94.0739 243.336 93.5592C243.149 93.0445 242.835 92.5849 242.425 92.2223C242.013 91.875 241.519 91.6386 240.991 91.5355C240.462 91.4324 239.916 91.4659 239.404 91.633C239.216 91.1802 238.916 90.7824 238.533 90.4765C238.151 90.1706 237.696 89.9667 237.213 89.8837C236.73 89.8007 236.234 89.8414 235.771 90.0019C235.308 90.1624 234.893 90.4376 234.565 90.8017C234.322 90.5296 234.017 90.3211 233.675 90.1945C233.333 90.068 232.966 90.0272 232.604 90.0759C232.237 90.1147 231.885 90.2415 231.577 90.4456C231.269 90.6497 231.015 90.9251 230.836 91.2484C230.373 91.0374 229.864 90.949 229.356 90.9916C228.849 91.0342 228.362 91.2063 227.94 91.4915C227.518 91.7767 227.177 92.1654 226.949 92.6203C226.721 93.0752 226.613 93.5812 226.637 94.0896C226.268 94.2013 225.947 94.4315 225.723 94.7444C225.498 95.0574 225.383 95.4356 225.396 95.8204C225.427 96.2164 225.584 96.592 225.844 96.8922C226.105 97.1925 226.454 97.4016 226.841 97.4891C227.577 101.465 228.889 105.313 230.737 108.91C231.562 110.517 232.598 112.142 234.174 112.973C235.886 113.891 238.597 113.376 240.08 112.111Z" fill="#455A64"/>
<path d="M226.233 102.719L224.515 105.715L226.401 106.41L226.233 102.719Z" fill="#F28F8F"/>
<path d="M226.829 97.5078C225.687 101.652 225.517 106.004 226.333 110.225C226.423 110.953 226.696 111.647 227.127 112.241C227.695 112.849 228.479 113.21 229.31 113.246C230.144 113.278 230.979 113.199 231.792 113.01V116.906C234.745 117.601 237.784 117.874 240.105 116.094V112.111C238.437 112.643 236.663 112.752 234.943 112.427C232.902 111.329 232.493 107.601 232.778 106.615C232.96 106.854 233.208 107.034 233.491 107.133C233.775 107.233 234.081 107.246 234.372 107.173C234.654 107.099 234.917 106.968 235.146 106.787C235.374 106.607 235.563 106.381 235.7 106.125C235.973 105.61 236.141 105.048 236.196 104.468C236.34 103.769 236.232 103.042 235.892 102.415C235.631 102.065 235.27 101.804 234.857 101.664C234.444 101.524 233.998 101.514 233.578 101.633C232.739 101.896 232.039 102.48 231.631 103.258C231.499 103.498 231.385 103.747 231.289 104.003C231.256 104.104 231.188 104.189 231.099 104.246C231.009 104.303 230.902 104.326 230.797 104.313C230.692 104.3 230.594 104.251 230.521 104.174C230.448 104.097 230.404 103.997 230.396 103.891C230.289 102.773 230.491 101.646 230.979 100.634C230.642 100.599 230.318 100.489 230.029 100.312C229.74 100.135 229.495 99.8951 229.31 99.6108C229.118 99.3457 228.989 99.0402 228.933 98.7177C228.877 98.3951 228.896 98.064 228.988 97.7497C228.26 97.7976 227.529 97.7157 226.829 97.5078Z" fill="#FFA8A7"/>
<path d="M229.186 103.072C230.543 103.115 231.893 102.869 233.147 102.352C234.401 101.834 235.532 101.056 236.463 100.07C236.596 99.9312 236.679 99.7534 236.702 99.5631C236.724 99.3728 236.684 99.1803 236.587 99.015C236.526 98.913 236.444 98.8249 236.346 98.7563C236.249 98.6878 236.138 98.6404 236.022 98.617C235.905 98.5937 235.784 98.5949 235.668 98.6207C235.552 98.6465 235.442 98.6963 235.346 98.7668C234.551 99.3895 233.605 99.7917 232.604 99.9331C232.673 98.4877 234.676 95.6713 235.706 94.6539C236.033 94.4142 236.273 94.0744 236.389 93.6861C236.405 93.5584 236.39 93.4287 236.346 93.3079C236.302 93.187 236.229 93.0785 236.134 92.9913C236.045 92.9017 235.934 92.8355 235.813 92.7988C235.692 92.762 235.564 92.7557 235.439 92.7804C235.561 92.731 235.664 92.6443 235.733 92.5328C235.802 92.4213 235.834 92.2909 235.824 92.1601C235.801 92.0259 235.742 91.9005 235.653 91.7969C235.565 91.6933 235.45 91.6152 235.322 91.5707C235.197 91.517 235.063 91.4892 234.928 91.4892C234.792 91.4892 234.658 91.517 234.534 91.5707C234.514 91.4567 234.463 91.3503 234.387 91.2637C234.31 91.1771 234.21 91.1137 234.099 91.0807C233.878 91.0064 233.638 91.0064 233.417 91.0807C233.19 91.1591 232.972 91.261 232.766 91.3846C232.641 91.2083 232.46 91.0801 232.252 91.0214C232.044 90.9627 231.823 90.977 231.624 91.062C229.013 92.3896 225.88 96.6452 225.855 99.5733C225.887 100.463 226.243 101.31 226.857 101.955C227.471 102.599 228.299 102.997 229.186 103.072Z" fill="#FFA8A7"/>
<path d="M235.408 92.731C233.942 93.4381 232.765 94.6303 232.077 96.1057C232.319 93.8662 234.521 92.8302 235.408 92.731Z" fill="#F28F8F"/>
<path d="M234.503 91.5029C232.294 92.5513 231.32 93.6494 230.719 94.6047C231.039 93.8119 231.553 93.1123 232.214 92.5703C232.876 92.0283 233.662 91.6612 234.503 91.5029Z" fill="#F28F8F"/>
<path d="M232.735 91.3413C231.469 91.8762 230.383 92.7606 229.602 93.891C229.844 93.2221 230.264 92.6315 230.815 92.1825C231.367 91.7334 232.031 91.4427 232.735 91.3413Z" fill="#F28F8F"/>
<path d="M233.572 101.608C232.13 102.3 230.513 102.542 228.932 102.303C228.698 101.399 228.186 100.592 227.468 99.9953C226.994 99.6025 226.442 99.315 225.849 99.1517C225.849 99.2757 225.849 99.406 225.849 99.5301C225.871 100.432 226.227 101.294 226.848 101.948C227.469 102.603 228.311 103.003 229.211 103.072C230.563 103.112 231.908 102.864 233.158 102.347C234.408 101.829 235.534 101.053 236.463 100.07C236.59 99.9377 236.672 99.7684 236.697 99.5865C236.721 99.4047 236.687 99.2197 236.599 99.0586C235.819 100.148 234.778 101.025 233.572 101.608Z" fill="#F28F8F"/>
<path opacity="0.2" d="M229.794 126.125C227.313 126.168 224.831 126.292 222.307 126.385L221.786 127.229V132.44C223.513 132.065 225.132 131.302 226.52 130.208C227.908 129.113 229.028 127.717 229.794 126.125Z" fill="black"/>
<path d="M230.036 117.322L213.46 112.626L228.057 105.653C230.179 101.769 226.289 98.4629 222.989 98.9406L206.109 107.278C204.87 107.847 203.82 108.76 203.084 109.908C202.349 111.056 201.958 112.391 201.959 113.755C201.959 115.136 202.359 116.487 203.113 117.644C203.866 118.802 204.939 119.716 206.202 120.275L225.433 128.798C231.221 130.74 235.266 118.804 230.036 117.322Z" fill="#FF5630"/>
<path opacity="0.2" d="M213.46 112.626L208.727 111.28C211.176 110.781 213.686 110.662 216.171 110.926L216.866 111L213.46 112.626Z" fill="black"/>
<path d="M159.682 38.6547L199.651 61.7194C200.35 62.1204 200.927 62.7036 201.32 63.4068C201.696 64.0757 201.894 64.8295 201.897 65.5966V90.144C201.897 93.1465 199.347 95.1813 195.991 93.2458L192.803 91.4282L192.151 91.0559L192.008 90.9753L170.644 78.5682L156.022 70.2121C155.338 69.8212 154.77 69.2568 154.375 68.576C153.98 67.8952 153.771 67.1221 153.77 66.3349V41.7565C153.77 38.5554 157.678 37.507 159.682 38.6547Z" fill="#FF5630"/>
<path opacity="0.4" d="M197.722 65.4234C197.433 64.8461 197.025 64.3366 196.525 63.9284C196.355 63.7903 196.174 63.6658 195.985 63.5561L156.003 40.5162C155.777 40.3855 155.52 40.3167 155.259 40.3167C154.997 40.3168 154.74 40.3857 154.514 40.5165C154.288 40.6472 154.1 40.8353 153.969 41.0618C153.838 41.2883 153.77 41.5451 153.77 41.8066C153.77 38.5807 157.678 37.5323 159.682 38.7048L199.651 61.7695C200.35 62.1705 200.927 62.7537 201.32 63.4569L197.722 65.4234Z" fill="white"/>
<path opacity="0.2" d="M198.218 91.9617V67.433C198.218 67.2545 198.206 67.0762 198.181 66.8995C198.107 66.3852 197.95 65.8865 197.716 65.423L201.32 63.4131C201.696 64.082 201.894 64.8358 201.897 65.6029V90.1441C201.897 93.1466 199.347 95.1814 195.991 93.2459C196.217 93.3748 196.472 93.4423 196.732 93.4418C196.992 93.4412 197.248 93.3726 197.473 93.2427C197.698 93.1129 197.886 92.9263 198.016 92.7015C198.147 92.4768 198.217 92.2217 198.218 91.9617Z" fill="white"/>
<path d="M192.803 91.4342L192.151 91.062L192.803 91.4342Z" fill="#FF5630"/>
<path d="M150.811 55.2433L153.77 53.5249V54.3934L150.811 55.2433Z" fill="#FF5630"/>
<path opacity="0.4" d="M150.811 55.2433L153.77 53.5249V54.3934L150.811 55.2433Z" fill="white"/>
<path d="M154.297 54.2441L150.978 55.1685C150.852 55.2023 150.737 55.2695 150.646 55.3631C150.555 55.4567 150.491 55.5732 150.46 55.7002C150.43 55.8273 150.434 55.9602 150.473 56.085C150.512 56.2098 150.583 56.3218 150.681 56.4092L154.13 59.604L154.297 54.2441Z" fill="#FF5630"/>
<path d="M161.568 51.9178V53.0716L160.191 52.2838L160.184 56.2851L158.913 55.553L158.925 51.5456L157.548 50.7515V49.5977L161.568 51.9178Z" fill="white"/>
<path d="M161.797 64.0023L162.765 66.1859L161.4 65.3981L160.594 63.537L159.88 63.1586V64.5296L158.64 63.7976V58.6362L160.693 59.8211C161.262 60.1139 161.744 60.5501 162.092 61.0865C162.44 61.6229 162.642 62.241 162.678 62.8794C162.678 63.6425 162.362 64.0147 161.797 64.0023ZM160.606 62.439C161.134 62.743 161.4 62.6189 161.4 62.1412C161.397 61.8816 161.322 61.628 161.183 61.4088C161.044 61.1896 160.846 61.0136 160.612 60.9005L159.905 60.4973V62.0047L160.612 62.4142" fill="white"/>
<path d="M164.223 53.3638C164.944 53.7926 165.548 54.393 165.981 55.1117C166.414 55.8304 166.662 56.645 166.704 57.483C166.704 59.0339 165.637 59.555 164.223 58.7237C163.503 58.2929 162.901 57.692 162.468 56.9737C162.036 56.2555 161.786 55.4419 161.741 54.6046C161.741 53.0537 162.808 52.5326 164.223 53.3638ZM164.223 57.5202C164.899 57.911 165.464 57.6319 165.464 56.7448C165.459 56.3114 165.346 55.8861 165.136 55.507C164.926 55.128 164.625 54.8072 164.26 54.5735C163.578 54.1765 163.019 54.4557 163.019 55.3428C163.022 55.7781 163.134 56.2057 163.346 56.5863C163.557 56.9668 163.861 57.288 164.229 57.5202" fill="white"/>
<path d="M169.682 56.4959C170.402 56.9258 171.005 57.5266 171.438 58.245C171.871 58.9635 172.12 59.7774 172.163 60.615C172.163 62.1659 171.096 62.687 169.682 61.8557C168.961 61.4252 168.357 60.8235 167.925 60.1039C167.492 59.3843 167.243 58.5691 167.201 57.7304C167.176 56.1857 168.243 55.6646 169.682 56.4959ZM169.682 60.6523C170.358 61.0493 170.923 60.7639 170.923 59.8768C170.919 59.4432 170.807 59.0175 170.597 58.6382C170.387 58.259 170.085 57.9384 169.719 57.7056C169.037 57.3148 168.479 57.5877 168.479 58.4748C168.482 58.91 168.594 59.3374 168.806 59.7179C169.017 60.0983 169.32 60.4196 169.688 60.6523" fill="white"/>
<path d="M177.306 69.4121V72.2719C177.306 73.8166 176.524 74.2261 175.191 73.463C174.545 73.1045 174.009 72.5777 173.638 71.9387C173.268 71.2998 173.078 70.5724 173.088 69.8339V66.9741L174.359 67.7123V70.5225C174.322 70.8628 174.383 71.2065 174.533 71.5139C174.684 71.8214 174.918 72.0799 175.209 72.2595C175.737 72.5635 176.053 72.3898 176.059 71.5027V68.6925L177.306 69.4121Z" fill="white"/>
<path d="M179.918 62.5136V67.6811L178.745 67.005V64.263L177.585 65.8263L177.015 65.4975L175.879 62.6811L175.867 65.3424L174.694 64.6662L174.707 59.5049L175.755 60.1066L177.325 63.9962L178.876 61.9057L179.918 62.5136Z" fill="white"/>
<path d="M181.686 71.943V73.072L179.422 71.7693V72.6378L181.413 73.7854V74.8834L179.422 73.7296L179.415 74.6725L181.76 76.0249L181.754 77.1539L178.15 75.0695L178.169 69.9082L181.686 71.943Z" fill="white"/>
<path d="M183.528 64.5983L185.501 70.9135L184.18 70.1442L183.826 68.9346L181.934 67.8117L181.574 68.612L180.278 67.8675L182.275 63.8477L183.528 64.5983ZM182.288 66.9742L183.441 67.6442L182.871 65.6591L182.288 66.9742Z" fill="white"/>
<path d="M184.229 73.3137C184.853 73.6733 185.406 74.1443 185.861 74.7033L185.47 75.5594C185.122 75.1198 184.703 74.7422 184.229 74.4427C183.696 74.1326 183.503 74.2256 183.503 74.4862C183.503 75.274 186.047 76.1549 186.041 78.0594C186.041 78.9589 185.383 79.3497 184.049 78.5743C183.317 78.1499 182.675 77.5874 182.157 76.9179L182.579 76.0867C182.986 76.6278 183.489 77.0902 184.062 77.4514C184.589 77.7492 184.794 77.6996 184.794 77.4514C184.794 76.6326 182.238 75.7517 182.244 73.8348C182.213 72.9167 182.895 72.5445 184.229 73.3137Z" fill="white"/>
<path d="M190.154 68.4197L190.135 73.581L189.087 72.9731L187.114 69.0835L187.108 71.8316L185.861 71.112L185.879 65.9507L186.922 66.5524L188.894 70.4482L188.907 67.7001L190.154 68.4197Z" fill="white"/>
<path d="M195.179 71.3226L193.442 73.6365V75.4852L192.17 74.7532L192.176 72.8797L190.476 68.6055L191.81 69.3809L192.877 72.0422L193.944 70.6092L195.179 71.3226Z" fill="white"/>
<path d="M166.909 63.4132L166.903 64.536L164.645 63.2333L164.639 64.1018L166.63 65.2494V66.3474L164.639 65.1936L164.632 66.1365L166.984 67.4951L166.977 68.6179L163.373 66.5398L163.385 61.3784L166.909 63.4132Z" fill="white"/>
<path d="M172.12 71.4344L172.666 72.5014C172.476 72.6184 172.256 72.674 172.034 72.6607C171.812 72.6473 171.599 72.5657 171.425 72.427C170.693 72.0051 170.215 71.4344 169.465 70.1068C168.878 69.6571 168.397 69.0851 168.054 68.4305C167.711 67.7759 167.515 67.0545 167.48 66.3165C167.48 64.7656 168.54 64.2445 169.961 65.0758C170.682 65.5067 171.285 66.1085 171.718 66.828C172.151 67.5475 172.399 68.3626 172.442 69.2011C172.442 70.3736 171.822 70.9567 170.91 70.8078C171.021 71.0618 171.205 71.2776 171.437 71.4282C171.538 71.4958 171.656 71.5324 171.778 71.5335C171.899 71.5347 172.018 71.5002 172.12 71.4344ZM169.949 69.2259C170.625 69.6167 171.189 69.3438 171.189 68.4567C171.186 68.0216 171.073 67.5944 170.862 67.214C170.65 66.8337 170.347 66.5123 169.98 66.2792C169.303 65.8884 168.739 66.1614 168.739 67.0547C168.747 67.4916 168.865 67.9195 169.082 68.2989C169.299 68.6783 169.607 68.9971 169.98 69.2259" fill="white"/>
<path d="M190.166 76.8377L190.16 77.9916L188.789 77.2037L188.776 81.205L187.511 80.473L187.517 76.4717L186.14 75.6714L186.146 74.5176L190.166 76.8377Z" fill="white"/>
<path d="M192.381 78.0163C193.001 78.3814 193.553 78.8516 194.012 79.4059L193.615 80.2682C193.266 79.8282 192.847 79.4488 192.374 79.1454C191.841 78.8414 191.649 78.9345 191.649 79.195C191.649 79.9829 194.192 80.8638 194.192 82.7682C194.192 83.6615 193.528 84.0524 192.195 83.2831C191.473 82.8533 190.842 82.2889 190.333 81.6206L190.755 80.7893C191.159 81.3333 191.662 81.7963 192.238 82.1541C192.759 82.4581 192.97 82.4022 192.97 82.1541C192.97 81.3352 190.414 80.4605 190.42 78.5374C190.389 77.6193 191.047 77.2471 192.381 78.0163Z" fill="white"/>
</svg>
