<svg width="205" height="358" viewBox="0 0 205 358" fill="none" xmlns="http://www.w3.org/2000/svg">
<rect opacity="0.2" x="97.8774" y="64.7683" width="48.8134" height="48.8134" transform="rotate(90 97.8774 64.7683)" fill="#005249"/>
<rect opacity="0.2" x="48.8134" y="308.861" width="48.8134" height="48.8134" fill="#005249"/>
<rect opacity="0.2" x="98.1019" y="162.418" width="48.8134" height="48.8134" transform="rotate(90 98.1019 162.418)" fill="#005249"/>
<rect opacity="0.2" x="49.064" y="260.054" width="48.8134" height="48.8134" fill="#005249"/>
<rect opacity="0.2" x="49.2886" y="113.604" width="48.8134" height="48.8134" transform="rotate(90 49.2886 113.604)" fill="#005249"/>
<rect opacity="0.2" x="49.2886" y="211.232" width="48.8134" height="48.8134" transform="rotate(90 49.2886 211.232)" fill="#005249"/>
<rect opacity="0.2" x="195.729" y="260.045" width="48.8134" height="48.8134" transform="rotate(90 195.729 260.045)" fill="#005249"/>
<rect opacity="0.2" y="308.861" width="48.8134" height="48.8134" fill="#005249"/>
<rect opacity="0.2" x="98.1019" y="113.604" width="48.8134" height="48.8134" transform="rotate(90 98.1019 113.604)" fill="#005249"/>
<rect opacity="0.2" x="0.25061" y="260.054" width="48.8134" height="48.8134" fill="#005249"/>
<rect opacity="0.2" x="146.915" y="260.045" width="48.8134" height="48.8134" transform="rotate(90 146.915 260.045)" fill="#005249"/>
<rect opacity="0.2" x="49.2886" y="64.791" width="48.8134" height="48.8134" transform="rotate(90 49.2886 64.791)" fill="#005249"/>
<rect opacity="0.2" x="49.2886" y="162.418" width="48.8134" height="48.8134" transform="rotate(90 49.2886 162.418)" fill="#005249"/>
<path opacity="0.2" d="M97.8775 64.7681L49.0641 64.7681L97.8775 113.582L97.8775 64.7681Z" fill="#5BE584"/>
<path opacity="0.2" d="M48.8135 357.674L97.6269 357.674L48.8135 308.861L48.8135 357.674Z" fill="white"/>
<path opacity="0.2" d="M49.2886 162.418V146.146H33.0174V129.875H16.7463V113.604H0.475178V162.418H49.2886Z" fill="white"/>
<path opacity="0.2" d="M122.509 260.045L146.915 235.638L122.509 211.232L98.1019 235.638L122.509 260.045Z" fill="white"/>
<g opacity="0.2">
<path d="M122.509 162.417L146.915 138.011L122.509 113.604L122.509 162.417Z" fill="white"/>
<path d="M98.1019 162.418L122.509 138.011L98.1019 113.604L98.1019 162.418Z" fill="white"/>
</g>
<path opacity="0.2" d="M49.2884 64.7911C35.8089 64.7911 24.8817 53.8638 24.8817 40.3844C24.8817 26.9049 35.8089 15.9777 49.2884 15.9777V30.7811C43.9846 30.7811 39.6851 35.0806 39.6851 40.3844C39.6851 45.6881 43.9846 49.9876 49.2884 49.9876V64.7911Z" fill="white"/>
<path opacity="0.2" d="M49.064 260.054C49.064 273.533 38.1368 284.461 24.6573 284.461C11.1779 284.461 0.250611 273.533 0.25061 260.054L15.054 260.054C15.054 265.358 19.3536 269.657 24.6573 269.657C29.961 269.657 34.2606 265.358 34.2606 260.054L49.064 260.054Z" fill="#5BE584"/>
<path opacity="0.2" d="M0.475154 15.9776C13.9546 15.9776 24.8819 26.9049 24.8819 40.3843C24.8819 53.8638 13.9546 64.791 0.475159 64.791L0.475157 49.9876C5.7789 49.9876 10.0784 45.6881 10.0784 40.3843C10.0784 35.0806 5.7789 30.781 0.475156 30.781L0.475154 15.9776Z" fill="white"/>
<path opacity="0.2" d="M0.250568 308.867C0.250567 295.388 11.1778 284.46 24.6573 284.46C38.1367 284.46 49.064 295.388 49.064 308.867L34.2605 308.867C34.2605 303.563 29.961 299.264 24.6573 299.264C19.3535 299.264 15.054 303.563 15.054 308.867L0.250568 308.867Z" fill="#5BE584"/>
<path opacity="0.2" d="M146.915 260.045C146.915 246.565 157.842 235.638 171.322 235.638C184.801 235.638 195.729 246.565 195.729 260.045L180.925 260.045C180.925 254.741 176.626 250.442 171.322 250.442C166.018 250.442 161.719 254.741 161.719 260.045L146.915 260.045Z" fill="white"/>
<path opacity="0.2" d="M195.729 211.232C195.729 224.711 184.801 235.638 171.322 235.638C157.843 235.638 146.915 224.711 146.915 211.232L161.719 211.232C161.719 216.535 166.018 220.835 171.322 220.835C176.626 220.835 180.925 216.535 180.925 211.232L195.729 211.232Z" fill="white"/>
<path opacity="0.2" d="M146.915 177.988V162.418H98.1019V211.231H113.251V177.988H146.915Z" fill="#5BE584"/>
<path opacity="0.2" d="M82.4733 129.233L73.6952 113.604L64.9172 129.233L49.2885 138.011L64.9172 146.789L73.6952 162.418L82.4733 146.789L98.1019 138.011L82.4733 129.233Z" fill="white"/>
<path opacity="0.2" d="M24.4067 308.861C10.9273 308.861 4.77645e-07 319.788 1.06685e-06 333.268L24.4067 357.674L48.8134 333.268C48.8134 319.788 37.8861 308.861 24.4067 308.861Z" fill="white"/>
<path opacity="0.2" d="M171.322 357.672L195.729 333.266L171.322 308.859L146.915 333.266L171.322 357.672Z" fill="white"/>
<path opacity="0.2" fill-rule="evenodd" clip-rule="evenodd" d="M45.1378 190.975C47.4302 190.975 49.2886 189.117 49.2886 186.824C49.2886 184.532 47.4302 182.674 45.1378 182.674H40.5882L44.5436 180.426C46.5367 179.293 47.2343 176.759 46.1016 174.766C44.969 172.773 42.4352 172.076 40.4421 173.208L35.9397 175.767L38.4984 171.264C39.631 169.271 38.9334 166.737 36.9404 165.605C34.9473 164.472 32.4134 165.17 31.2808 167.163L29.0326 171.119V166.569C29.0326 164.276 27.1743 162.418 24.8818 162.418C22.5894 162.418 20.731 164.276 20.731 166.569V171.119L18.4828 167.163C17.3502 165.17 14.8163 164.472 12.8232 165.605C10.8302 166.738 10.1326 169.271 11.2652 171.264L13.8234 175.766L9.3217 173.208C7.32861 172.075 4.79473 172.773 3.66212 174.766C2.52951 176.759 3.22707 179.293 5.22015 180.426L9.17601 182.674H4.62598C2.33355 182.674 0.475178 184.532 0.475178 186.824C0.475178 189.117 2.33355 190.975 4.62598 190.975H9.17705L5.22015 193.224C3.22707 194.356 2.52951 196.89 3.66212 198.883C4.79473 200.876 7.32861 201.574 9.3217 200.441L13.8231 197.883L11.2652 202.385C10.1326 204.378 10.8302 206.912 12.8232 208.044C14.8163 209.177 17.3502 208.479 18.4828 206.486L20.731 202.53V207.08C20.731 209.373 22.5894 211.231 24.8818 211.231C27.1743 211.231 29.0326 209.373 29.0326 207.08V202.53L31.2808 206.486C32.4134 208.479 34.9473 209.177 36.9404 208.044C38.9334 206.912 39.631 204.378 38.4984 202.385L35.94 197.883L40.4421 200.441C42.4352 201.574 44.969 200.876 46.1016 198.883C47.2343 196.89 46.5367 194.356 44.5436 193.224L40.5871 190.975H45.1378Z" fill="#5BE584"/>
<g opacity="0.2">
<path d="M140.604 277.655C133.864 284.395 122.504 284.452 122.504 284.452C122.504 284.452 122.07 273.582 128.81 266.843C135.549 260.103 146.91 260.045 146.91 260.045C146.91 260.045 147.343 270.915 140.604 277.655Z" fill="#5BE584"/>
<path d="M140.604 291.249C133.864 284.51 122.504 284.452 122.504 284.452C122.504 284.452 122.07 295.322 128.81 302.061C135.549 308.801 146.91 308.859 146.91 308.859C146.91 308.859 147.343 297.989 140.604 291.249Z" fill="#5BE584"/>
<path d="M104.414 277.655C111.153 284.395 122.513 284.452 122.513 284.452C122.513 284.452 122.947 273.582 116.207 266.843C109.468 260.103 98.1076 260.045 98.1076 260.045C98.1076 260.045 97.6741 270.915 104.414 277.655Z" fill="#5BE584"/>
<path d="M104.414 291.249C111.153 284.51 122.513 284.452 122.513 284.452C122.513 284.452 122.947 295.322 116.207 302.061C109.468 308.801 98.1076 308.859 98.1076 308.859C98.1076 308.859 97.6741 297.989 104.414 291.249Z" fill="#5BE584"/>
</g>
<g opacity="0.2">
<path fill-rule="evenodd" clip-rule="evenodd" d="M140.407 333.265C140.407 323.38 132.394 315.367 122.509 315.367C112.624 315.367 104.61 323.38 104.61 333.265C104.61 343.15 112.624 351.164 122.509 351.164C132.394 351.164 140.407 343.15 140.407 333.265ZM122.509 308.859C135.988 308.859 146.915 319.786 146.915 333.265C146.915 346.745 135.988 357.672 122.509 357.672C109.029 357.672 98.1019 346.745 98.1019 333.265C98.1019 319.786 109.029 308.859 122.509 308.859Z" fill="white"/>
<path fill-rule="evenodd" clip-rule="evenodd" d="M128.991 333.265C128.991 329.685 126.089 326.782 122.508 326.782C118.928 326.782 116.025 329.685 116.025 333.265C116.025 336.846 118.928 339.748 122.508 339.748C126.089 339.748 128.991 336.846 128.991 333.265ZM122.508 320.299C129.669 320.299 135.474 326.104 135.474 333.265C135.474 340.426 129.669 346.231 122.508 346.231C115.347 346.231 109.542 340.426 109.542 333.265C109.542 326.104 115.347 320.299 122.508 320.299Z" fill="white"/>
</g>
<path opacity="0.2" d="M73.6953 171.404C71.1741 165.92 67.3362 162.418 63.0377 162.418C55.4443 162.418 49.2886 173.346 49.2886 186.825C49.2886 200.304 55.4443 211.232 63.0377 211.232C67.3362 211.232 71.174 207.73 73.6953 202.246C76.2165 207.73 80.0543 211.232 84.3529 211.232C91.9463 211.232 98.102 200.304 98.102 186.825C98.102 173.346 91.9463 162.418 84.3529 162.418C80.0543 162.418 76.2165 165.92 73.6953 171.404Z" fill="#5BE584"/>
<path opacity="0.2" fill-rule="evenodd" clip-rule="evenodd" d="M67.1993 264.562C69.2669 258.551 77.6744 258.551 79.742 264.562L80.2734 266.107L81.6624 265.269C87.0676 262.008 93.5081 267.472 91.2707 273.42L90.6957 274.949L92.2925 275.209C98.5061 276.224 99.966 284.596 94.4705 287.698L93.0582 288.495L94.1156 289.733C98.2302 294.549 94.0265 301.91 87.8443 300.715L86.2555 300.408L86.2788 302.044C86.3691 308.407 78.4687 311.314 74.4925 306.381L73.4707 305.113L72.4489 306.381C68.4727 311.314 60.5722 308.407 60.6626 302.044L60.6858 300.408L59.0971 300.715C52.9148 301.91 48.7111 294.549 52.8257 289.733L53.8831 288.495L52.4708 287.698C46.9753 284.596 48.4352 276.224 54.6489 275.209L56.2456 274.949L55.6707 273.42C53.4333 267.472 59.8737 262.008 65.2789 265.269L66.668 266.107L67.1993 264.562ZM73.4707 272.08C71.8794 275.018 68.3415 276.32 65.2547 275.104C65.9035 278.389 64.021 281.685 60.883 282.759C63.4684 284.854 64.1222 288.603 62.4013 291.465C65.7134 291.389 68.5976 293.836 69.099 297.147C71.5882 294.937 75.3532 294.937 77.8423 297.147C78.3437 293.836 81.2279 291.389 84.54 291.465C82.8191 288.603 83.4729 284.854 86.0583 282.759C82.9203 281.685 81.0378 278.389 81.6866 275.104C78.5998 276.32 75.0619 275.018 73.4707 272.08Z" fill="#5BE584"/>
<g opacity="0.2">
<path fill-rule="evenodd" clip-rule="evenodd" d="M195.729 281.294L171.322 284.452L171.322 284.452L194.038 274.984L190.88 269.514L171.322 284.452L171.322 284.452L171.322 284.452L171.322 284.452L171.322 284.452L171.322 284.452L171.322 284.452V284.452L186.26 264.894L180.79 261.736L171.322 284.452L174.48 260.046H168.164L171.322 284.452L171.322 284.452L161.853 261.736L156.384 264.894L171.322 284.452L151.764 269.514L148.606 274.983L171.322 284.452L171.322 284.452L146.915 281.294V287.61L171.322 284.452L171.322 284.452L148.606 293.921L151.764 299.39L171.322 284.453L156.384 304.01L161.853 307.168L171.322 284.452L171.322 284.452L168.164 308.859H174.48L171.322 284.452L180.79 307.168L186.26 304.01L171.322 284.452L171.322 284.452L171.322 284.452L171.322 284.452L171.322 284.452L190.88 299.39L194.038 293.92L171.323 284.452L195.729 287.61L195.729 281.294ZM171.322 284.452L171.322 284.452L171.322 284.452L171.322 284.452L171.322 284.452L171.322 284.452ZM171.322 284.452V284.452L171.322 284.452L171.322 284.452L171.322 284.452L171.322 284.452ZM171.322 284.452L171.322 284.452L171.322 284.452L171.322 284.452L171.322 284.452L171.322 284.452Z" fill="#5BE584"/>
</g>
<path opacity="0.2" d="M76.4004 242.169C76.072 252.478 74.9852 260.045 73.6952 260.045C72.4052 260.045 71.3185 252.478 70.9901 242.169C63.4688 249.226 57.3493 253.809 56.4371 252.897C55.5249 251.984 60.1075 245.865 67.1644 238.344C56.8561 238.015 49.2885 236.928 49.2885 235.638C49.2885 234.348 56.8561 233.262 67.1644 232.933C60.1075 225.412 55.5249 219.292 56.4371 218.38C57.3493 217.468 63.4688 222.051 70.9901 229.108C71.3185 218.799 72.4052 211.232 73.6952 211.232C74.9852 211.232 76.072 218.799 76.4004 229.108C83.9217 222.051 90.0412 217.468 90.9534 218.38C91.8655 219.292 87.2829 225.412 80.226 232.933C90.5344 233.262 98.1019 234.348 98.1019 235.638C98.1019 236.928 90.5344 238.015 80.2261 238.344C87.2829 245.865 91.8656 251.984 90.9534 252.897C90.0412 253.809 83.9217 249.226 76.4004 242.169Z" fill="white"/>
<path opacity="0.2" d="M158.15 211.231L157.732 199.926L146.915 198.644L184.494 162.418L184.913 173.723L195.729 175.005L158.15 211.231Z" fill="#5BE584"/>
<path opacity="0.2" fill-rule="evenodd" clip-rule="evenodd" d="M49.2347 89.1975C35.78 89.1684 24.8819 78.2523 24.8819 64.7909V64.7908L24.8818 64.7908L24.8818 64.7908V64.7909C24.8818 78.2469 13.9925 89.1595 0.545437 89.1975C13.9815 89.2354 24.8639 100.13 24.8818 113.571C24.8997 100.125 35.791 89.2265 49.2347 89.1975Z" fill="#5BE584"/>
<g opacity="0.2">
<path fill-rule="evenodd" clip-rule="evenodd" d="M42.7801 235.638C42.7801 225.753 34.7668 217.74 24.8819 217.74C14.9969 217.74 6.98363 225.753 6.98363 235.638C6.98363 245.523 14.9969 253.537 24.8819 253.537C34.7668 253.537 42.7801 245.523 42.7801 235.638ZM24.8819 211.232C38.3613 211.232 49.2886 222.159 49.2886 235.638C49.2886 249.118 38.3613 260.045 24.8819 260.045C11.4024 260.045 0.475174 249.118 0.475174 235.638C0.475174 222.159 11.4024 211.232 24.8819 211.232Z" fill="white"/>
<path fill-rule="evenodd" clip-rule="evenodd" d="M31.3648 235.638C31.3648 232.058 28.4623 229.155 24.8818 229.155C21.3013 229.155 18.3988 232.058 18.3988 235.638C18.3988 239.219 21.3013 242.121 24.8818 242.121C28.4623 242.121 31.3648 239.219 31.3648 235.638ZM24.8818 222.672C32.0427 222.672 37.8478 228.477 37.8478 235.638C37.8478 242.799 32.0427 248.604 24.8818 248.604C17.7208 248.604 11.9157 242.799 11.9157 235.638C11.9157 228.477 17.7208 222.672 24.8818 222.672Z" fill="white"/>
</g>
</svg>
