<svg width="48" height="49" viewBox="0 0 48 49" fill="none" xmlns="http://www.w3.org/2000/svg">
<rect y="0.403809" width="48" height="48" rx="24" fill="white" fill-opacity="0.2"/>
<g clip-path="url(#clip0_9496_197323)">
<path d="M19.8584 14.4737C18.7944 14.5239 18.0678 14.6937 17.4326 14.9433C16.7752 15.1995 16.218 15.5433 15.6636 16.0997C15.1092 16.6561 14.7678 17.2137 14.5134 17.8721C14.2672 18.5087 14.1004 19.2359 14.0534 20.3005C14.0064 21.3651 13.996 21.7073 14.0012 24.4229C14.0064 27.1385 14.0184 27.4789 14.07 28.5457C14.1208 29.6095 14.29 30.3359 14.5396 30.9713C14.7962 31.6287 15.1396 32.1857 15.6962 32.7403C16.2528 33.2949 16.81 33.6355 17.47 33.8903C18.106 34.1361 18.8334 34.3037 19.8978 34.3503C20.9622 34.3969 21.3048 34.4077 24.0196 34.4025C26.7344 34.3973 27.0762 34.3853 28.1428 34.3347C29.2094 34.2841 29.932 34.1137 30.5676 33.8653C31.225 33.6081 31.7824 33.2653 32.3366 32.7085C32.8908 32.1517 33.232 31.5937 33.4862 30.9349C33.7326 30.2989 33.9 29.5715 33.9462 28.5079C33.9928 27.4405 34.0038 27.0997 33.9986 24.3845C33.9934 21.6693 33.9812 21.3289 33.9306 20.2625C33.88 19.1961 33.7106 18.4719 33.4612 17.8361C33.2042 17.1787 32.8612 16.6221 32.3048 16.0671C31.7484 15.5121 31.19 15.1711 30.5314 14.9175C29.895 14.6713 29.168 14.5035 28.1036 14.4575C27.0392 14.4115 26.6966 14.3997 23.9808 14.4049C21.265 14.4101 20.925 14.4217 19.8584 14.4737ZM19.9752 32.5513C19.0002 32.5089 18.4708 32.3469 18.118 32.2113C17.6508 32.0313 17.318 31.8137 16.9664 31.4655C16.6148 31.1173 16.3988 30.7833 16.2164 30.3171C16.0794 29.9643 15.9144 29.4355 15.8688 28.4605C15.8192 27.4067 15.8088 27.0903 15.803 24.4205C15.7972 21.7507 15.8074 21.4347 15.8536 20.3805C15.8952 19.4063 16.0582 18.8763 16.1936 18.5237C16.3736 18.0559 16.5904 17.7237 16.9394 17.3723C17.2884 17.0209 17.6214 16.8045 18.088 16.6221C18.4404 16.4845 18.9692 16.3209 19.9438 16.2745C20.9984 16.2245 21.3144 16.2145 23.9838 16.2087C26.6532 16.2029 26.97 16.2129 28.025 16.2593C28.9992 16.3017 29.5294 16.4631 29.8816 16.5993C30.349 16.7793 30.6816 16.9955 31.033 17.3451C31.3844 17.6947 31.601 18.0265 31.7834 18.4941C31.9212 18.8455 32.0848 19.3741 32.1308 20.3493C32.181 21.4039 32.1924 21.7201 32.1972 24.3893C32.202 27.0585 32.1926 27.3755 32.1464 28.4293C32.1038 29.4043 31.9422 29.9339 31.8064 30.2871C31.6264 30.7541 31.4094 31.0871 31.0602 31.4383C30.711 31.7895 30.3784 32.0059 29.9116 32.1883C29.5596 32.3257 29.0302 32.4897 28.0564 32.5361C27.0018 32.5857 26.6858 32.5961 24.0154 32.6019C21.345 32.6077 21.03 32.5969 19.9754 32.5513M28.1274 19.0591C28.1278 19.2965 28.1986 19.5284 28.3308 19.7255C28.463 19.9227 28.6507 20.0762 28.8701 20.1666C29.0896 20.257 29.3309 20.2804 29.5636 20.2337C29.7963 20.1869 30.01 20.0723 30.1775 19.9041C30.345 19.736 30.4589 19.5219 30.5048 19.289C30.5507 19.0562 30.5264 18.8149 30.4352 18.5958C30.3439 18.3767 30.1898 18.1896 29.9921 18.0581C29.7945 17.9266 29.5624 17.8567 29.325 17.8571C29.0068 17.8578 28.7019 17.9848 28.4773 18.2102C28.2527 18.4356 28.1269 18.741 28.1274 19.0591ZM18.8654 24.4137C18.871 27.2497 21.1742 29.5435 24.0096 29.5381C26.845 29.5327 29.1404 27.2297 29.135 24.3937C29.1296 21.5577 26.8258 19.2633 23.99 19.2689C21.1542 19.2745 18.86 21.5781 18.8654 24.4137ZM20.6666 24.4101C20.6653 23.7509 20.8595 23.106 21.2247 22.5571C21.5899 22.0082 22.1097 21.5799 22.7183 21.3264C23.3269 21.0729 23.997 21.0056 24.6438 21.1329C25.2907 21.2603 25.8853 21.5766 26.3524 22.0418C26.8195 22.5071 27.1382 23.1004 27.2681 23.7468C27.398 24.3931 27.3333 25.0635 27.0822 25.6731C26.8311 26.2827 26.4049 26.8041 25.8574 27.1715C25.31 27.5389 24.6659 27.7356 24.0066 27.7369C23.5689 27.7379 23.1352 27.6525 22.7304 27.4858C22.3256 27.3191 21.9577 27.0743 21.6475 26.7654C21.3373 26.4565 21.0911 26.0895 20.9228 25.6853C20.7545 25.2812 20.6674 24.8479 20.6666 24.4101Z" fill="white" fill-opacity="0.7"/>
</g>
<defs>
<clipPath id="clip0_9496_197323">
<rect width="20" height="20" fill="white" transform="translate(14 14.4038)"/>
</clipPath>
</defs>
</svg>
