<svg width="20" height="20" viewBox="0 0 20 20" fill="none" xmlns="http://www.w3.org/2000/svg">
<path d="M10 0C10.9226 0 11.808 0.119048 12.6562 0.357143C13.5045 0.595238 14.3006 0.93006 15.0446 1.36161C15.7887 1.79315 16.4621 2.31399 17.0647 2.92411C17.6674 3.53423 18.1882 4.20759 18.6272 4.9442C19.0662 5.6808 19.4048 6.47693 19.6429 7.33259C19.881 8.18824 20 9.07738 20 10C20 10.9226 19.881 11.808 19.6429 12.6562C19.4048 13.5045 19.0699 14.3006 18.6384 15.0446C18.2068 15.7887 17.686 16.4621 17.0759 17.0647C16.4658 17.6674 15.7924 18.1882 15.0558 18.6272C14.3192 19.0662 13.5231 19.4048 12.6674 19.6429C11.8118 19.881 10.9226 20 10 20C9.07738 20 8.19196 19.881 7.34375 19.6429C6.49554 19.4048 5.6994 19.0699 4.95536 18.6384C4.21131 18.2068 3.53795 17.686 2.93527 17.0759C2.33259 16.4658 1.81176 15.7924 1.37277 15.0558C0.93378 14.3192 0.595238 13.5231 0.357143 12.6674C0.119048 11.8118 0 10.9226 0 10C0 9.07738 0.119048 8.19196 0.357143 7.34375C0.595238 6.49554 0.93006 5.6994 1.36161 4.95536C1.79315 4.21131 2.31399 3.53795 2.92411 2.93527C3.53423 2.33259 4.20759 1.81176 4.9442 1.37277C5.6808 0.93378 6.47693 0.595238 7.33259 0.357143C8.18824 0.119048 9.07738 0 10 0ZM10 1.42857C9.21131 1.42857 8.45238 1.52902 7.72321 1.72991C6.99405 1.9308 6.31324 2.22098 5.6808 2.60045C5.04836 2.97991 4.46801 3.42634 3.93973 3.93973C3.41146 4.45312 2.96503 5.02976 2.60045 5.66964C2.23586 6.30952 1.9494 6.99405 1.74107 7.72321C1.53274 8.45238 1.42857 9.21131 1.42857 10H18.5714C18.5714 9.21131 18.471 8.45238 18.2701 7.72321C18.0692 6.99405 17.779 6.31324 17.3996 5.6808C17.0201 5.04836 16.5737 4.46801 16.0603 3.93973C15.5469 3.41146 14.9702 2.96503 14.3304 2.60045C13.6905 2.23586 13.006 1.9494 12.2768 1.74107C11.5476 1.53274 10.7887 1.42857 10 1.42857Z" fill="#00B8D9"/>
</svg>
