<svg width="48" height="49" viewBox="0 0 48 49" fill="none" xmlns="http://www.w3.org/2000/svg">
<rect y="0.403809" width="48" height="48" rx="24" fill="white" fill-opacity="0.2"/>
<g clip-path="url(#clip0_9496_197345)">
<path d="M33.582 19.5965C33.352 18.7334 32.6744 18.0537 31.8139 17.823C30.2542 17.4037 24 17.4037 24 17.4037C24 17.4037 17.7458 17.4037 16.1861 17.823C15.3256 18.0537 14.6479 18.7334 14.4179 19.5965C14 21.1609 14 24.425 14 24.425C14 24.425 14 27.689 14.4179 29.2536C14.6479 30.1167 15.3256 30.7964 16.1861 31.0271C17.7458 31.4463 24 31.4463 24 31.4463C24 31.4463 30.2542 31.4463 31.8139 31.0271C32.6744 30.7964 33.352 30.1167 33.582 29.2536C34 27.689 34 24.425 34 24.425C34 24.425 34 21.1609 33.582 19.5965Z" fill="white" fill-opacity="0.7"/>
<path d="M21.9545 27.3884L27.1818 24.4251L21.9545 21.4614V27.3884Z" fill="#333C3A"/>
</g>
<defs>
<clipPath id="clip0_9496_197345">
<rect width="20" height="14.0426" fill="white" transform="translate(14 17.4038)"/>
</clipPath>
</defs>
</svg>
